<?xml version="1.0" encoding="UTF-8" standalone="no"?>
<!-- Created with Inkscape (http://www.inkscape.org/) for BidMyCar by Adrian Etenyi-->

<svg
   width="210mm"
   height="297mm"
   viewBox="0 0 210 297"
   version="1.1"
   id="svg318"
   xmlns:xlink="http://www.w3.org/1999/xlink"
   xmlns="http://www.w3.org/2000/svg"
   xmlns:svg="http://www.w3.org/2000/svg">
  <defs
     id="defs315">
    <linearGradient
       xlink:href="#33ed42ff-21f9-4847-b20e-7375c2b28026"
       id="linearGradient223"
       gradientTransform="scale(0.894432,1.118028)"
       x1="13.414035"
       y1="1.7873831"
       x2="98.386559"
       y2="1.7873831"
       gradientUnits="userSpaceOnUse" />
    <linearGradient
       data-v-423bf9ae=""
       gradientTransform="rotate(25)"
       id="33ed42ff-21f9-4847-b20e-7375c2b28026"
       x1="0"
       y1="0"
       x2="1"
       y2="0">
      <stop
         data-v-423bf9ae=""
         offset="0%"
         style="stop-color: rgb(1, 105, 90); stop-opacity: 1;"
         id="stop35" />
      <stop
         data-v-423bf9ae=""
         offset="100%"
         style="stop-color: rgb(44, 194, 111); stop-opacity: 1;"
         id="stop37" />
    </linearGradient>
    <linearGradient
       xlink:href="#33ed42ff-21f9-4847-b20e-7375c2b28026"
       id="linearGradient217"
       gradientTransform="scale(1.3818204,0.72368307)"
       x1="13.604518"
       y1="62.469334"
       x2="58.76379"
       y2="62.469334"
       gradientUnits="userSpaceOnUse" />
    <linearGradient
       xlink:href="#33ed42ff-21f9-4847-b20e-7375c2b28026"
       id="linearGradient391"
       gradientUnits="userSpaceOnUse"
       gradientTransform="scale(0.894432,1.118028)"
       x1="13.414035"
       y1="1.7873831"
       x2="98.386559"
       y2="1.7873831" />
    <linearGradient
       xlink:href="#33ed42ff-21f9-4847-b20e-7375c2b28026"
       id="linearGradient393"
       gradientUnits="userSpaceOnUse"
       gradientTransform="scale(0.894432,1.118028)"
       x1="13.414035"
       y1="1.7873831"
       x2="98.386559"
       y2="1.7873831" />
    <linearGradient
       xlink:href="#33ed42ff-21f9-4847-b20e-7375c2b28026"
       id="linearGradient395"
       gradientUnits="userSpaceOnUse"
       gradientTransform="scale(0.894432,1.118028)"
       x1="13.414035"
       y1="1.7873831"
       x2="98.386559"
       y2="1.7873831" />
    <linearGradient
       xlink:href="#33ed42ff-21f9-4847-b20e-7375c2b28026"
       id="linearGradient84"
       gradientTransform="scale(1.3818204,0.72368307)"
       x1="13.604518"
       y1="62.469335"
       x2="58.763789"
       y2="62.469335"
       gradientUnits="userSpaceOnUse" />
    <linearGradient
       xlink:href="#33ed42ff-21f9-4847-b20e-7375c2b28026"
       id="linearGradient157"
       gradientUnits="userSpaceOnUse"
       gradientTransform="scale(0.894432,1.118028)"
       x1="13.414035"
       y1="1.7873831"
       x2="98.386559"
       y2="1.7873831" />
    <linearGradient
       xlink:href="#33ed42ff-21f9-4847-b20e-7375c2b28026"
       id="linearGradient159"
       gradientUnits="userSpaceOnUse"
       gradientTransform="scale(0.894432,1.118028)"
       x1="13.414035"
       y1="1.7873831"
       x2="98.386559"
       y2="1.7873831" />
    <linearGradient
       xlink:href="#33ed42ff-21f9-4847-b20e-7375c2b28026"
       id="linearGradient161"
       gradientUnits="userSpaceOnUse"
       gradientTransform="scale(0.894432,1.118028)"
       x1="13.414035"
       y1="1.7873831"
       x2="98.386559"
       y2="1.7873831" />
    <linearGradient
       xlink:href="#33ed42ff-21f9-4847-b20e-7375c2b28026"
       id="linearGradient163"
       gradientUnits="userSpaceOnUse"
       gradientTransform="scale(0.894432,1.118028)"
       x1="13.414035"
       y1="1.7873831"
       x2="98.386559"
       y2="1.7873831" />
  </defs>
  <g
     id="layer1">
    <g
       data-v-423bf9ae=""
       id="04040ebc-89b8-437f-a600-06f68fac35fa"
       transform="matrix(0.87604898,0,0,0.87604898,54.954329,99.46696)"
       stroke="none"
       fill="url(#33ed42ff-21f9-4847-b20e-7375c2b28026)"
       style="fill:url(#linearGradient223)">
      <switch
         id="switch48"
         style="fill:url(#linearGradient395)"
         transform="matrix(3673.5417,0,0,1537.979,-44088.827,-3102.7268)">
        <g
           id="g46"
           style="fill:url(#linearGradient393)">
          <path
             d="M 87.107,53.1 C 86.525,52.512 85.75,52 84.927,52 h -6.35 c -0.092,0 -0.18,0.193 -0.271,0.204 C 76.05,48.782 74.079,46.72 73.052,45.691 69.937,42.578 60.759,41.3 52.262,41.05 51.948,37.554 50.743,35.069 48.669,33.627 a 6.845,6.845 0 0 0 -0.882,-0.499 l 1.062,-7.841 A 0.813,0.813 0 0 0 48.688,24.674 L 31.671,2.327 a 0.83,0.83 0 0 0 -1.163,-0.16 l -16.17,12.305 a 0.848,0.848 0 0 0 -0.319,0.556 0.817,0.817 0 0 0 0.163,0.611 L 31.2,37.994 c 0.131,0.176 0.33,0.291 0.546,0.319 l 14.241,1.93 a 0.852,0.852 0 0 0 0.613,-0.158 0.828,0.828 0 0 0 0.321,-0.553 l 0.626,-4.625 c 0.062,0.039 0.125,0.073 0.185,0.115 1.601,1.119 2.552,3.137 2.851,5.98 -9.191,0.017 -20.17,1.27 -23.638,4.735 -1.027,1.028 -2.998,3.021 -5.254,6.443 C 21.599,52.168 21.511,52 21.42,52 h -6.35 c -0.822,0 -1.598,0.486 -2.18,1.074 -0.58,0.584 -0.897,1.522 -0.892,2.343 v 2.849 c 0,1.575 1.208,3.027 2.751,3.31 l 1.913,0.366 c -2.577,6.476 -4.56,15.517 -1.53,24.901 l -0.003,5.438 c 0,2.816 0.951,4.719 2.543,4.719 h 7.261 C 26.527,97 27,94.873 27,92.057 v -2.644 c 6,0.513 14,1.044 22,1.108 v 0.062 c 9,0 17,-0.575 24,-1.121 v 2.644 C 73,94.923 73.473,97 75.064,97 h 7.262 c 1.592,0 2.543,-1.878 2.543,-4.694 l -0.004,-5.313 c 3.029,-9.385 1.047,-18.476 -1.529,-24.951 l 1.912,-0.391 C 86.791,61.367 88,59.891 88,58.315 V 55.466 C 88.006,54.646 87.688,53.683 87.107,53.1 Z M 45.387,38.487 32.311,36.717 16.006,15.296 30.853,3.996 47.158,25.41 46.189,32.561 A 8.8,8.8 0 0 0 44.59,32.334 2.988,2.988 0 0 0 44.21,31.638 c -0.949,-1.249 -2.872,-1.514 -4.132,-0.559 a 2.958,2.958 0 0 0 -0.558,4.133 2.918,2.918 0 0 0 2.345,1.163 c 0.652,0 1.27,-0.212 1.783,-0.607 a 2.89,2.89 0 0 0 1.092,-1.749 c 0.393,0.031 0.806,0.095 1.224,0.205 z m -4.318,-4.83 a 0.831,0.831 0 0 0 1.029,0.568 c 0.01,-0.001 0.35,-0.093 0.883,-0.161 a 1.305,1.305 0 0 1 -0.34,0.384 c -0.542,0.421 -1.387,0.299 -1.799,-0.243 a 1.297,1.297 0 0 1 0.245,-1.809 1.278,1.278 0 0 1 1.586,0.025 7.875,7.875 0 0 0 -1.04,0.209 0.827,0.827 0 0 0 -0.564,1.027 z m 43.57,24.853 -6.004,1.076 0.857,1.875 c 2.707,6.05 5.273,15.224 2.135,24.657 l -0.084,0.247 0.004,5.606 c 0,0.487 -0.047,1.028 -0.102,1.028 H 75.943 C 75.891,93 76,92.594 76,92.106 v -6.285 l -1.783,0.167 C 68.346,86.537 59,87.186 51,87.257 v -0.043 c -9,0 -18.776,-0.693 -24.997,-1.275 L 24,85.771 v 6.285 C 24,92.544 24.109,93 24.056,93 h -5.502 c -0.055,0 -0.102,-0.57 -0.102,-1.059 l 0.005,-5.693 -0.085,-0.227 C 15.233,76.587 17.8,67.409 20.507,61.359 L 21.365,59.454 15.36,58.48 15.324,56 h 6.097 l 1.473,1.202 0.875,-1.862 c 1.743,-2.785 3.648,-5.443 5.414,-7.209 C 31.289,46.021 39,44.482 49,44.336 v 0.036 c 11,0 19.377,1.544 21.594,3.765 1.766,1.766 3.839,4.381 5.581,7.165 l 0.903,1.925 1.5,-1.227 h 6.098 z"
             id="path42"
             style="fill:url(#linearGradient391)" />
          <path
             d="m 75.24,65.958 a 5.97,5.97 0 0 0 -5.961,5.963 c 0,3.292 2.674,5.968 5.961,5.968 3.287,0 5.961,-2.676 5.961,-5.968 A 5.97,5.97 0 0 0 75.24,65.958 Z m 0,10.271 a 4.313,4.313 0 0 1 -4.301,-4.308 4.308,4.308 0 0 1 4.301,-4.302 4.307,4.307 0 0 1 4.301,4.302 4.311,4.311 0 0 1 -4.301,4.308 z M 51,45.271 v -0.063 c -10,0 -19.255,1.535 -21.378,3.658 -2.582,2.587 -6.361,7.531 -9.039,13.643 -0.104,0.245 -0.123,0.521 0.008,0.75 0.133,0.23 0.349,0.38 0.609,0.408 3.093,0.355 8.311,0.082 14.189,-0.27 C 39.64,63.146 45,62.864 49,62.813 v 0.039 c 5,0 10.663,0.316 15.351,0.594 5.879,0.352 11.306,0.625 14.397,0.27 a 0.882,0.882 0 0 0 0.66,-0.408 0.848,0.848 0 0 0 0.058,-0.75 C 76.788,56.447 73.219,51.502 70.637,48.915 68.616,46.895 60,45.41 51,45.271 Z M 64.716,61.79 C 60.444,61.534 56,61.252 51,61.202 v -0.061 c -6,0 -10.741,0.316 -15.449,0.599 -5.095,0.304 -9.959,0.56 -12.965,0.377 2.547,-5.428 5.758,-9.854 7.978,-12.077 C 31.826,48.781 38,47.031 49,46.883 v 0.035 c 12,0 18.884,1.856 20.202,3.172 2.221,2.224 5.731,6.649 8.278,12.077 -3.005,0.183 -7.668,-0.073 -12.764,-0.377 z m -39.957,4.118 c -3.286,0 -5.96,2.678 -5.96,5.963 0,3.292 2.674,5.968 5.96,5.968 3.287,0 5.962,-2.676 5.962,-5.968 a 5.971,5.971 0 0 0 -5.962,-5.963 z m 0,10.271 c -2.37,0 -4.3,-1.935 -4.3,-4.308 0,-2.372 1.93,-4.302 4.3,-4.302 2.37,0 4.301,1.93 4.301,4.302 a 4.312,4.312 0 0 1 -4.301,4.308 z"
             id="path44"
             style="fill:url(#linearGradient217)" />
        </g>
      </switch>
      <g
         data-v-423bf9ae=""
         id="04040ebc-89b8-437f-a600-06f68fac35fa-0"
         transform="matrix(1.537979,0,0,1.537979,-22.319652,-24.873413)"
         stroke="none"
         fill="url(#33ed42ff-21f9-4847-b20e-7375c2b28026)"
         style="fill:url(#linearGradient163)">
        <switch
           id="switch35"
           style="fill:url(#linearGradient161)">
          <g
             id="g33"
             style="fill:url(#linearGradient159)">
            <path
               d="M 87.107,53.1 C 86.525,52.512 85.75,52 84.927,52 h -6.35 c -0.092,0 -0.18,0.193 -0.271,0.204 C 76.05,48.782 74.079,46.72 73.052,45.691 69.937,42.578 60.759,41.3 52.262,41.05 51.948,37.554 50.743,35.069 48.669,33.627 a 6.845,6.845 0 0 0 -0.882,-0.499 l 1.062,-7.841 A 0.813,0.813 0 0 0 48.688,24.674 L 31.671,2.327 a 0.83,0.83 0 0 0 -1.163,-0.16 l -16.17,12.305 a 0.848,0.848 0 0 0 -0.319,0.556 0.817,0.817 0 0 0 0.163,0.611 L 31.2,37.994 c 0.131,0.176 0.33,0.291 0.546,0.319 l 14.241,1.93 a 0.852,0.852 0 0 0 0.613,-0.158 0.828,0.828 0 0 0 0.321,-0.553 l 0.626,-4.625 c 0.062,0.039 0.125,0.073 0.185,0.115 1.601,1.119 2.552,3.137 2.851,5.98 -9.191,0.017 -20.17,1.27 -23.638,4.735 -1.027,1.028 -2.998,3.021 -5.254,6.443 C 21.599,52.168 21.511,52 21.42,52 h -6.35 c -0.822,0 -1.598,0.486 -2.18,1.074 -0.58,0.584 -0.897,1.522 -0.892,2.343 v 2.849 c 0,1.575 1.208,3.027 2.751,3.31 l 1.913,0.366 c -2.577,6.476 -4.56,15.517 -1.53,24.901 l -0.003,5.438 c 0,2.816 0.951,4.719 2.543,4.719 h 7.261 C 26.527,97 27,94.873 27,92.057 v -2.644 c 6,0.513 14,1.044 22,1.108 v 0.062 c 9,0 17,-0.575 24,-1.121 v 2.644 C 73,94.923 73.473,97 75.064,97 h 7.262 c 1.592,0 2.543,-1.878 2.543,-4.694 l -0.004,-5.313 c 3.029,-9.385 1.047,-18.476 -1.529,-24.951 l 1.912,-0.391 C 86.791,61.367 88,59.891 88,58.315 V 55.466 C 88.006,54.646 87.688,53.683 87.107,53.1 Z M 45.387,38.487 32.311,36.717 16.006,15.296 30.853,3.996 47.158,25.41 46.189,32.561 A 8.8,8.8 0 0 0 44.59,32.334 2.988,2.988 0 0 0 44.21,31.638 c -0.949,-1.249 -2.872,-1.514 -4.132,-0.559 a 2.958,2.958 0 0 0 -0.558,4.133 2.918,2.918 0 0 0 2.345,1.163 c 0.652,0 1.27,-0.212 1.783,-0.607 a 2.89,2.89 0 0 0 1.092,-1.749 c 0.393,0.031 0.806,0.095 1.224,0.205 z m -4.318,-4.83 a 0.831,0.831 0 0 0 1.029,0.568 c 0.01,-0.001 0.35,-0.093 0.883,-0.161 a 1.305,1.305 0 0 1 -0.34,0.384 c -0.542,0.421 -1.387,0.299 -1.799,-0.243 a 1.297,1.297 0 0 1 0.245,-1.809 1.278,1.278 0 0 1 1.586,0.025 7.875,7.875 0 0 0 -1.04,0.209 0.827,0.827 0 0 0 -0.564,1.027 z m 43.57,24.853 -6.004,1.076 0.857,1.875 c 2.707,6.05 5.273,15.224 2.135,24.657 l -0.084,0.247 0.004,5.606 c 0,0.487 -0.047,1.028 -0.102,1.028 H 75.943 C 75.891,93 76,92.594 76,92.106 v -6.285 l -1.783,0.167 C 68.346,86.537 59,87.186 51,87.257 v -0.043 c -9,0 -18.776,-0.693 -24.997,-1.275 L 24,85.771 v 6.285 C 24,92.544 24.109,93 24.056,93 h -5.502 c -0.055,0 -0.102,-0.57 -0.102,-1.059 l 0.005,-5.693 -0.085,-0.227 C 15.233,76.587 17.8,67.409 20.507,61.359 L 21.365,59.454 15.36,58.48 15.324,56 h 6.097 l 1.473,1.202 0.875,-1.862 c 1.743,-2.785 3.648,-5.443 5.414,-7.209 C 31.289,46.021 39,44.482 49,44.336 v 0.036 c 11,0 19.377,1.544 21.594,3.765 1.766,1.766 3.839,4.381 5.581,7.165 l 0.903,1.925 1.5,-1.227 h 6.098 z"
               id="path29"
               style="fill:url(#linearGradient157)" />
            <path
               d="m 75.24,65.958 a 5.97,5.97 0 0 0 -5.961,5.963 c 0,3.292 2.674,5.968 5.961,5.968 3.287,0 5.961,-2.676 5.961,-5.968 A 5.97,5.97 0 0 0 75.24,65.958 Z m 0,10.271 a 4.313,4.313 0 0 1 -4.301,-4.308 4.308,4.308 0 0 1 4.301,-4.302 4.307,4.307 0 0 1 4.301,4.302 4.311,4.311 0 0 1 -4.301,4.308 z M 51,45.271 v -0.063 c -10,0 -19.255,1.535 -21.378,3.658 -2.582,2.587 -6.361,7.531 -9.039,13.643 -0.104,0.245 -0.123,0.521 0.008,0.75 0.133,0.23 0.349,0.38 0.609,0.408 3.093,0.355 8.311,0.082 14.189,-0.27 C 39.64,63.146 45,62.864 49,62.813 v 0.039 c 5,0 10.663,0.316 15.351,0.594 5.879,0.352 11.306,0.625 14.397,0.27 a 0.882,0.882 0 0 0 0.66,-0.408 0.848,0.848 0 0 0 0.058,-0.75 C 76.788,56.447 73.219,51.502 70.637,48.915 68.616,46.895 60,45.41 51,45.271 Z M 64.716,61.79 C 60.444,61.534 56,61.252 51,61.202 v -0.061 c -6,0 -10.741,0.316 -15.449,0.599 -5.095,0.304 -9.959,0.56 -12.965,0.377 2.547,-5.428 5.758,-9.854 7.978,-12.077 C 31.826,48.781 38,47.031 49,46.883 v 0.035 c 12,0 18.884,1.856 20.202,3.172 2.221,2.224 5.731,6.649 8.278,12.077 -3.005,0.183 -7.668,-0.073 -12.764,-0.377 z m -39.957,4.118 c -3.286,0 -5.96,2.678 -5.96,5.963 0,3.292 2.674,5.968 5.96,5.968 3.287,0 5.962,-2.676 5.962,-5.968 a 5.971,5.971 0 0 0 -5.962,-5.963 z m 0,10.271 c -2.37,0 -4.3,-1.935 -4.3,-4.308 0,-2.372 1.93,-4.302 4.3,-4.302 2.37,0 4.301,1.93 4.301,4.302 a 4.312,4.312 0 0 1 -4.301,4.308 z"
               id="path31"
               style="fill:url(#linearGradient84)" />
          </g>
        </switch>
      </g>
    </g>
  </g>
</svg>
