<svg width="472.68" height="56.995" class="css-1j8o68f" viewBox="0 0 369.667 44.574"><g id="SvgjsG1964" fill="#232931" featurekey="G09qjj-0"><g xmlns="http://www.w3.org/2000/svg"><path style="enable-background:accumulate" fill="#232931" stroke="none" marker="none" d="m 39.812499,979.36219 c -6.81155,0 -14.8125,10.99998 -23.8125,18.99998 -6,2.00003 -9,5.98373 -9,9.93753 l 0,1.0625 86.000002,0 0,-2.4688 c -1.05673,0 -2.0149,-0.9746 -2,-2.0312 l 0,-9.00003 c 0,-1.5128 0.93031,-1.9106 2,-2.0625 l 0,-10.375 c 0,-3.0612 -2.00557,-4.06248 -5.906252,-4.06248 z m -4,5.99998 c 2.0625,0 4.125,0 6.1875,0 1.04717,10e-5 1.9999,0.9528 2,2 l 0,10 c -6.7e-4,0.7331 -0.44024,1.4492 -1.09375,1.7812 l -8,4.00003 c -0.27934,0.1431 -0.5926,0.2183 -0.90625,0.2188 l -13,0 c -0.80137,0.01 -1.57969,-0.505 -1.875,-1.25 -0.29531,-0.745 -0.0884,-1.6745 0.5,-2.21883 l 15,-14 c 0.3226,-0.3016 0.7476,-0.4922 1.1875,-0.5312 z m 12,0 c 12.0625,0 24.125,0 36.1875,0 1.04717,10e-5 1.9999,0.9528 2,2 l 0,10 c -6.7e-4,0.7331 -0.44024,1.4492 -1.09375,1.7812 l -8,4.00003 c -0.27934,0.1431 -0.5926,0.2183 -0.90625,0.2188 l -28,0 c -1.04717,-10e-5 -1.9999,-0.9528 -2,-2 l 0,-14.00003 c -0.004,-0.9875 0.82933,-1.907 1.8125,-2 z m -11.03125,4 -10.71875,10 7.40625,0 6.53125,-3.25 0,-6.75 z m 13.21875,0 0,10 25.46875,0 6.53125,-3.25 0,-6.75 z m -34,14.00003 c -1,3 -4,5 -6,5 0,-1 0.3125,-2.7188 1.3125,-3.7188 1,-1 3.02083,-0.9479 4.6875,-1.2812 z m -9,10 c 0,4.9872 1,5.9872 6,6 0,-2.3779 1.05373,-4.522 2.71875,-6 z m 14,0 c -3.31371,0 -6,2.6863 -6,6 0,3.3137 2.68629,6 6,6 3.31371,0 6,-2.6863 6,-6 0,-3.3137 -2.68629,-6 -6,-6 z m 5.28125,0 c 1.66502,1.478 2.71875,3.6221 2.71875,6 l 40,0 c 0,-2.3779 1.05373,-4.522 2.71875,-6 z m 50.71875,0 c -3.31371,0 -6,2.6863 -6,6 0,3.3137 2.68629,6 6,6 3.31371,0 6,-2.6863 6,-6 0,-3.3137 -2.68629,-6 -6,-6 z m 5.28125,0 c 1.66502,1.478 2.71875,3.6221 2.71875,6 7.000002,-0.013 8.000002,-1.0128 8.000002,-6 z" display="inline" overflow="visible" transform="matrix(0.9689922480620154,0,0,0.9689922480620154,-6.782945736434108,-26.16273155508115) translate(0,-952.36218)" visibility="visible"/></g></g><g id="SvgjsG1965" fill="#232931" featurekey="0yvIkK-0"><path d="M17.567 12.0424 c0 1.0081 -0.32878 1.759 -0.8114 2.2982 c0.48524 0.53376 0.8113 1.2642 0.8113 2.2318 c0 2.523 -2.0564 3.4388 -3.4388 3.4388 l-12.499 0 l0 -11.408 l12.237 0 c1.4875 0 3.7004 0.9158 3.7004 3.4388 z M14.778 17.4818 c0.21816 -0.12072 0.44116 -0.32318 0.44102 -0.90964 c0 -0.47164 -0.15969 -0.72696 -0.56946 -0.91072 c-0.3725 -0.16701 -0.77926 -0.18049 -0.78304 -0.18049 l-9.8895 0 l0 2.1822 l10.141 0 c0.1024 -0.0033984 0.40832 -0.041972 0.66036 -0.18139 z M14.778 12.952 c0.21816 -0.12072 0.44116 -0.32304 0.44116 -0.90964 c0 -0.47164 -0.15969 -0.72696 -0.56946 -0.91072 c-0.3725 -0.16701 -0.77926 -0.18049 -0.78304 -0.18049 l-9.8895 0 l0 2.1822 l10.14 0 c0.1024 -0.0033984 0.40832 -0.041972 0.66036 -0.18139 z M22.913800000000002 20.02461 l-2.3246 0 l0 -11.295 l2.3246 0 l0 11.295 z M40.753 10.8272 c0.95568 0.96942 1.4718 2.2114 1.4534 3.497 c-0.02289 1.5915 -0.78998 3.0436 -2.16 4.0892 c-1.4271 1.089 -3.4354 1.6646 -5.8082 1.6646 c-4.5288 0 -6.808 -0.0667 -6.8304 -0.067344 l-1.1387 -0.03414 l0 -11.373 l7.9691 0 c3.5728 0 5.5148 1.2092 6.5148 2.2236 z M34.2384 17.7304 c3.8486 0 5.5962 -1.7276 5.6208 -3.4396 c0.009414 -0.66168 -0.25962 -1.2893 -0.77796 -1.8153 c-0.9689 -0.9829 -2.6888 -1.5241 -4.843 -1.5241 l-5.6214 0 l0 6.737 c1.09 0.018965 2.963 0.041992 5.6214 0.041992 z M53.538000000000004 14.0628 l7.9688 -5.3126 l0 11.25 l-2.3477 0 l0 -6.8631 l-5.621 3.7472 l-5.621 -3.7472 l0 6.8631 l-2.3477 0 l0 -11.25 z M80.77000000000001 8.445 l0.016758 1.1737 c0.01832 1.2629 -0.49072 2.489 -1.4333 3.4524 c-0.88466 0.90428 -2.5122 1.966 -5.367 2.2142 l-0.036758 4.6262 l-2.3476 -0.016094 l0.036484 -4.5994 c-2.2324 -0.18141 -4.09 -0.92992 -5.3086 -2.1572 c-0.97334 -0.9804 -1.4991 -2.2306 -1.4804 -3.5202 l0.017129 -1.1737 l2.3474 0.03414 l-0.017012 1.1737 c-0.0095508 0.66232 0.26668 1.2959 0.79912 1.832 c0.98028 0.98734 2.6908 1.5237 4.8134 1.507 c2.1676 -0.01582 3.8956 -0.57064 4.8658 -1.5624 c0.50916 -0.5203 0.77322 -1.1346 0.76394 -1.7765 l-0.017012 -1.1737 z M98.91 17.65 l0.040136 2.3242 l-1.1621 0.02002 c-0.015039 0.0002539 -1.0275 0.017129 -3.0076 0.017129 c-1.0032 0 -2.2546 -0.0044532 -3.7506 -0.017402 c-2.4132 -0.021054 -4.3428 -0.54212 -5.7348 -1.549 c-1.3835 -1.0007 -2.1454 -2.4562 -2.1454 -4.0986 c0 -1.6413 0.76854 -3.1002 2.164 -4.1074 c1.383 -0.99846 3.3616 -1.531 5.7218 -1.5402 c4.441 -0.017129 6.719 0.00027344 6.7416 0.00041016 l1.1622 0.0091602 l-0.01832 2.3246 l-1.1622 -0.0091602 c-0.022364 -0.0002539 -2.2892 -0.01752 -6.7144 -0.00039062 c-3.4358 0.01334 -5.5702 1.2866 -5.5702 3.3232 c0 0.90194 0.39812 1.6473 1.1831 2.215 c0.97936 0.70836 2.4984 1.0916 4.3926 1.1081 c4.4144 0.038574 6.6758 0.00089844 6.698 0.00050782 z M110.47540000000001 8.011 l9.1766 12.19 l-2.9508 0 l-2.566 -3.3974 l-7.3197 0 l-2.5286 3.3974 l-2.9177 0 z M108.5762 14.4556 l3.7983 0 l-1.8992 -2.5322 z M136.397 17.557 l1.162 -0.017422 l0.034786 2.3242 l-1.1621 0.017402 c-0.18088 0.002754 -0.38542 0.0058984 -0.6087 0.0058984 c-1.614 0 -4.2026 -0.16008 -5.8378 -1.7712 c-0.72798 -0.71726 -1.1865 -1.629 -1.3698 -2.72 l-4.2054 0 l-0.016602 4.4896 l-2.3246 -0.0086328 l0.037402 -10.127 l0 -1.1635 l0.0043164 0 l0 -0.0043164 l1.1612 0.0043164 l10.951 0 c1.4728 0 3.6638 0.90678 3.6638 3.4048 c0 2.4982 -2.0362 3.405 -3.4048 3.405 l-3.4826 0 c0.12543 0.4252 0.32842 0.77924 0.61734 1.064 c1.1685 1.151 3.608 1.1146 4.7804 1.0969 z M124.43140000000001 13.0714 l10.041 -0.000019531 c0.10148 -0.0035352 0.40426 -0.041718 0.6538 -0.17971 c0.21608 -0.11955 0.43686 -0.32006 0.43686 -0.90076 c0 -0.46692 -0.15799 -0.71972 -0.56382 -0.90166 c-0.36882 -0.16531 -0.77152 -0.17865 -0.77532 -0.17865 l-9.7922 0 l0 2.1608 z" transform="matrix(1.9570800250159597,0,0,1.9570800250159597,99.81171936644253,-4.678167453286756)"/></g></svg>