<svg xmlns="http://www.w3.org/2000/svg" height="800" width="1200" viewBox="-150 -42.951 1300 257.706"><path d="M435.34 171.219c3.544 0 25.093-.116 42.49-1.327 21.025-1.467 31.861-8.676 39.8-19.006 9.85-12.784 9.785-36.755 9.772-55.409-.012-20.832.276-81.188.186-86.57-.07-5.403-2.114-8.21-8.291-8.158-6.184.039-23.62 0-29.605.051L479.029.75c-6.183-.052-8.221 2.754-8.31 8.156v5.787c.089 6.388-.084 67.283-.11 81.56v6.324c-.166 13.15-1.768 25.94-20.364 27.92-8.023.845-11.7 1.223-21.64 1.223-9.95 0-13.616-.378-21.748-1.224-18.59-1.954-19.717-14.77-19.89-27.919v-6.325c-.026-14.276-.199-75.17-.122-81.56V8.907c-.077-5.402-2.127-8.208-8.298-8.157L367.871.8c-5.985-.05-23.408-.012-29.598-.05-6.17-.052-8.215 2.754-8.285 8.156-.09 5.383-.026 65.739-.051 86.571-.012 18.654-.064 42.625 9.772 55.41 7.92 10.329 18.608 17.538 39.562 19.005 17.398 1.224 38.307 1.327 42.94 1.327h13.13zm-377.893-7.832c-.122 5.863-1.852 8.176-7.856 8.317-6.024.173-35.494.077-40.863.032-5.345-.057-8.638-1.679-8.651-7.414C.038 158.594.038 14.55 0 9.078-.013 3.631 2.557 1.05 8.202 1.222c5.633.135 34.577-.154 42.26-.02 5.812-.044 7.177 3.307 7.196 9.292.141 8.049-.07 147.062-.211 152.893m802.993-58.272c.11 13.52 3.377 22.569 18.872 24.978 12.405 1.282 29.188 1.545 42.068.237 11.79-1.294 20.87-6.074 21.402-19.422.596-11.272.647-13.213.686-25.1.064-28.848-.25-70.75-.154-74.863l.05-1.75c-.095-6.388 2.82-9.086 8.229-9.086L954.829 0c6.158.051 30.937.109 36.935.109 5.408 0 8.324 2.698 8.234 9.086l-.077 1.993c.115 6.024-.07 69.84-.134 88.673-.34 9.458-1.013 31.488-8.299 45.457-6.344 12.124-17.698 21.448-37.005 23.364-37.109 3.697-70.942 2.16-96.997 1.07-19.364-1-31.84-5.338-42.19-16.84-11.713-13.188-12.328-35.724-12.155-61.574-.224-57.036-.397-73.473-.308-78.913v-3.23c-.09-6.388 2.826-9.086 8.234-9.086L814.284 0c6.216.051 31.924.109 37.935.109 5.389 0 8.33 2.698 8.221 9.086-.09 6.415-.025 79.458 0 95.549M571.796.614c5.793-.172 109.396-.05 141.788.129 28.682.32 39.287 4.402 47.073 14.821 8.983 12.04 9.913 27.125 2.652 39.537-5.21 8.9-14.847 16.667-29.303 23.722-11.477 5.895-31.572 14.84-51.212 23.485-26.304 11.617-50.123 21.678-54.127 23.773-5.422 2.845-3.371 7.107.935 7.043 11.24-.135 119.764-1.02 125.557-1.032 5.818-.006 7.708 2.089 7.708 8.337-.012 6.536.051 17.711.064 22.78-.134 6.094-2.076 7.76-7.85 7.817-6.593.07-122.198.103-130.42.141-18.275-.045-37.095.026-48.321-5.414-14.02-6.812-18.763-20.467-18.776-30.04.667-23.332 13.669-30.803 37.096-41.658 26.048-11.823 102.943-45.086 107.524-47.214 5.678-2.646 3.916-7.85-1.352-7.677-4.043.084-121.827.686-127.645.68-5.8-.02-9.49-.955-9.49-6.581.012-5.6-.051-19.647-.051-25.427 0-5.805 2.332-7.036 8.15-7.221M267.606 88.35C241.553 77.528 165.53 53.479 155.444 48.487c-4.857-2.089-4.53-8.292 2.044-8.292 11.227.167 122.66.385 128.479.423 5.811.013 8.26-2.249 8.26-8.51.025-6.529-.02-18.512-.097-23.773-.077-5.35-2.006-7.375-6.812-7.388-4.805 0-133.502.154-133.502.154-35.916-.083-45.13 5.203-55.306 17.423-13.265 15.943-9.048 37.525-1.436 48.655 8.574 12.45 22.73 17.955 45.253 25.837 27.285 8.875 91.543 31.475 91.543 31.475 5.889 2.544 5.44 8.715-1.832 8.715 0 0-122.577-1.102-128.383-1.115-5.818-.006-8.657 2.833-8.683 8.452 0 5.62-.05 15.917-.076 21.761 0 5.78 1.678 9.08 7.497 9.286 5.78.198 111.177-.2 143.588-.263 24.658-.064 48.476-7.683 53.365-34.917 2.929-23.466-7.004-38.012-31.738-48.06" fill="#e60012"/></svg>