<svg xmlns="http://www.w3.org/2000/svg" xmlns:xlink="http://www.w3.org/1999/xlink" height="800" width="1200" version="1.0" viewBox="-18.1326 -15.86625 157.1492 95.1975"><g transform="translate(-2.598 -2.059)"><defs><path id="a" d="M-27.75-48h162v148h-162z"/></defs><clipPath id="b"><use height="100%" width="100%" overflow="visible" xlink:href="#a"/></clipPath><path d="M63.037 2.059c-33.377 0-60.439 14.208-60.439 31.735 0 17.523 27.062 31.73 60.439 31.73 33.381 0 60.445-14.207 60.445-31.73 0-17.527-27.064-31.735-60.445-31.735" fill="#58595B" clip-path="url(#b)"/><path d="M63.038 2.065c-33.375 0-60.433 14.205-60.433 31.729 0 17.52 27.058 31.725 60.433 31.725 33.376 0 60.438-14.205 60.438-31.725.001-17.523-27.062-31.729-60.438-31.729" fill="#595A5C" clip-path="url(#b)"/><path d="M63.039 2.072c-33.371 0-60.427 14.202-60.427 31.723 0 17.516 27.056 31.718 60.427 31.718 33.373 0 60.432-14.202 60.432-31.718 0-17.521-27.059-31.723-60.432-31.723" fill="#5A5B5D" clip-path="url(#b)"/><path d="M63.04 2.078c-33.369 0-60.421 14.199-60.421 31.717 0 17.512 27.053 31.711 60.421 31.711 33.368 0 60.426-14.199 60.426-31.711 0-17.518-27.058-31.717-60.426-31.717" fill="#5B5C5E" clip-path="url(#b)"/><path d="M63.04 2.085c-33.364 0-60.414 14.196-60.414 31.71 0 17.509 27.05 31.706 60.414 31.706 33.366 0 60.419-14.197 60.419-31.706 0-17.514-27.053-31.71-60.419-31.71" fill="#5C5C5F" clip-path="url(#b)"/><path d="M63.04 2.091c-33.359 0-60.407 14.193-60.407 31.704 0 17.506 27.047 31.699 60.407 31.699 33.362 0 60.413-14.193 60.413-31.699 0-17.511-27.051-31.704-60.413-31.704" fill="#5C5D60" clip-path="url(#b)"/><path d="M63.041 2.098c-33.356 0-60.4 14.191-60.4 31.698 0 17.502 27.044 31.693 60.4 31.693 33.358 0 60.406-14.191 60.406-31.693 0-17.507-27.048-31.698-60.406-31.698" fill="#5D5E60" clip-path="url(#b)"/><path d="M63.043 2.104c-33.354 0-60.395 14.188-60.395 31.692 0 17.498 27.041 31.687 60.395 31.687s60.398-14.188 60.398-31.687c0-17.504-27.045-31.692-60.398-31.692" fill="#5E5F61" clip-path="url(#b)"/><path d="M63.043 2.111c-33.35 0-60.388 14.185-60.388 31.686 0 17.495 27.038 31.68 60.388 31.68 33.351 0 60.394-14.185 60.394-31.68 0-17.501-27.043-31.686-60.394-31.686" fill="#5F6062" clip-path="url(#b)"/><path d="M63.043 2.117c-33.346 0-60.381 14.182-60.381 31.679 0 17.492 27.035 31.676 60.381 31.676 33.348 0 60.387-14.184 60.387-31.676 0-17.497-27.039-31.679-60.387-31.679" fill="#606163" clip-path="url(#b)"/><path d="M63.044 2.123c-33.342 0-60.375 14.18-60.375 31.673 0 17.489 27.033 31.669 60.375 31.669 33.344 0 60.38-14.18 60.38-31.669 0-17.493-27.036-31.673-60.38-31.673" fill="#616264" clip-path="url(#b)"/><path d="M63.045 2.13c-33.338 0-60.368 14.177-60.368 31.667 0 17.485 27.03 31.662 60.368 31.662 33.34 0 60.373-14.177 60.373-31.662 0-17.49-27.033-31.667-60.373-31.667" fill="#616365" clip-path="url(#b)"/><path d="M63.046 2.136c-33.335 0-60.362 14.174-60.362 31.661 0 17.482 27.027 31.656 60.362 31.656 33.336 0 60.366-14.174 60.366-31.656 0-17.487-27.03-31.661-60.366-31.661" fill="#626366" clip-path="url(#b)"/><path d="M63.046 2.143c-33.332 0-60.355 14.171-60.355 31.655 0 17.478 27.023 31.649 60.355 31.649 33.333 0 60.36-14.172 60.36-31.649 0-17.485-27.027-31.655-60.36-31.655" fill="#636467" clip-path="url(#b)"/><path d="M63.047 2.149c-33.328 0-60.348 14.168-60.348 31.648 0 17.475 27.02 31.644 60.348 31.644 33.329 0 60.354-14.169 60.354-31.644 0-17.48-27.025-31.648-60.354-31.648" fill="#646567" clip-path="url(#b)"/><path d="M63.048 2.156c-33.324 0-60.342 14.166-60.342 31.643 0 17.47 27.018 31.637 60.342 31.637 33.325 0 60.347-14.167 60.347-31.637 0-17.477-27.022-31.643-60.347-31.643" fill="#656668" clip-path="url(#b)"/><path d="M63.048 2.162c-33.32 0-60.334 14.163-60.334 31.636 0 17.468 27.014 31.632 60.334 31.632 33.322 0 60.341-14.164 60.341-31.632 0-17.473-27.019-31.636-60.341-31.636" fill="#666769" clip-path="url(#b)"/><path d="M63.048 2.168c-33.315 0-60.329 14.16-60.329 31.629 0 17.465 27.013 31.625 60.329 31.625 33.318 0 60.334-14.16 60.334-31.625 0-17.468-27.016-31.629-60.334-31.629" fill="#66686A" clip-path="url(#b)"/><path d="M63.049 2.175c-33.313 0-60.321 14.157-60.321 31.624 0 17.461 27.009 31.618 60.321 31.618 33.315 0 60.327-14.157 60.327-31.618 0-17.466-27.012-31.624-60.327-31.624" fill="#67686B" clip-path="url(#b)"/><path d="M63.051 2.182C29.74 2.182 2.735 16.336 2.735 33.8c0 17.457 27.005 31.611 60.315 31.611s60.32-14.154 60.32-31.611c.001-17.464-27.009-31.618-60.319-31.618" fill="#68696C" clip-path="url(#b)"/><path d="M63.051 2.188c-33.306 0-60.309 14.152-60.309 31.611 0 17.454 27.003 31.606 60.309 31.606 33.307 0 60.314-14.152 60.314-31.606 0-17.459-27.008-31.611-60.314-31.611" fill="#696A6C" clip-path="url(#b)"/><path d="M63.051 2.194c-33.302 0-60.302 14.149-60.302 31.604 0 17.451 27 31.602 60.302 31.602 33.304 0 60.308-14.15 60.308-31.602-.001-17.455-27.005-31.604-60.308-31.604" fill="#6A6B6D" clip-path="url(#b)"/><path d="M63.052 2.201c-33.298 0-60.295 14.146-60.295 31.598 0 17.448 26.997 31.595 60.295 31.595 33.3 0 60.301-14.146 60.301-31.595 0-17.452-27.001-31.598-60.301-31.598" fill="#6A6C6E" clip-path="url(#b)"/><path d="M63.053 2.208C29.758 2.208 2.764 16.352 2.764 33.8c0 17.444 26.994 31.588 60.289 31.588 33.297 0 60.294-14.144 60.294-31.588 0-17.448-26.997-31.592-60.294-31.592" fill="#6B6C6F" clip-path="url(#b)"/><path d="M63.053 2.213C29.761 2.213 2.77 16.354 2.77 33.801c0 17.439 26.991 31.581 60.283 31.581 33.294 0 60.288-14.142 60.288-31.581 0-17.447-26.994-31.588-60.288-31.588" fill="#6C6D70" clip-path="url(#b)"/><path d="M63.053 2.22c-33.287 0-60.274 14.138-60.274 31.581 0 17.437 26.988 31.575 60.274 31.575 33.29 0 60.282-14.139 60.282-31.575 0-17.443-26.992-31.581-60.282-31.581" fill="#6D6E70" clip-path="url(#b)"/><path d="M63.055 2.227c-33.285 0-60.27 14.135-60.27 31.574 0 17.433 26.985 31.569 60.27 31.569 33.285 0 60.274-14.137 60.274-31.569 0-17.439-26.989-31.574-60.274-31.574" fill="#6D6F71" clip-path="url(#b)"/><path d="M63.056 2.233C29.775 2.233 2.793 16.365 2.793 33.8c0 17.431 26.982 31.563 60.263 31.563 33.282 0 60.268-14.133 60.268-31.563-.001-17.435-26.986-31.567-60.268-31.567" fill="#6E7072" clip-path="url(#b)"/><path d="M63.057 2.239C29.78 2.239 2.8 16.369 2.8 33.802c0 17.427 26.98 31.557 60.257 31.557s60.261-14.13 60.261-31.557c-.001-17.433-26.984-31.563-60.261-31.563" fill="#6F7073" clip-path="url(#b)"/><path d="M63.057 2.246c-33.273 0-60.25 14.127-60.25 31.555 0 17.424 26.977 31.551 60.25 31.551 33.274 0 60.255-14.127 60.255-31.551 0-17.428-26.981-31.555-60.255-31.555" fill="#707174" clip-path="url(#b)"/><path d="M63.057 2.252c-33.27 0-60.243 14.124-60.243 31.549 0 17.42 26.973 31.545 60.243 31.545 33.271 0 60.249-14.125 60.249-31.545 0-17.425-26.978-31.549-60.249-31.549" fill="#717275" clip-path="url(#b)"/><path d="M63.058 2.259c-33.266 0-60.236 14.121-60.236 31.543 0 17.416 26.971 31.538 60.236 31.538 33.269 0 60.242-14.122 60.242-31.538 0-17.422-26.974-31.543-60.242-31.543" fill="#717375" clip-path="url(#b)"/><path d="M63.059 2.265c-33.262 0-60.23 14.119-60.23 31.537 0 17.413 26.968 31.532 60.23 31.532 33.264 0 60.235-14.119 60.235-31.532 0-17.418-26.972-31.537-60.235-31.537" fill="#727476" clip-path="url(#b)"/><path d="M63.06 2.271c-33.259 0-60.225 14.115-60.225 31.53 0 17.41 26.965 31.526 60.225 31.526 33.26 0 60.229-14.116 60.229-31.526-.001-17.414-26.97-31.53-60.229-31.53" fill="#737477" clip-path="url(#b)"/><path d="M63.06 2.278c-33.255 0-60.217 14.113-60.217 31.524 0 17.406 26.962 31.52 60.217 31.52 33.257 0 60.223-14.113 60.223-31.52-.001-17.411-26.967-31.524-60.223-31.524" fill="#747578" clip-path="url(#b)"/><path d="M63.061 2.285c-33.251 0-60.21 14.11-60.21 31.518 0 17.402 26.959 31.514 60.21 31.514 33.253 0 60.216-14.111 60.216-31.514-.001-17.408-26.964-31.518-60.216-31.518" fill="#747678" clip-path="url(#b)"/><path d="M63.061 2.291c-33.248 0-60.204 14.107-60.204 31.512 0 17.4 26.956 31.508 60.204 31.508 33.25 0 60.209-14.107 60.209-31.508 0-17.405-26.959-31.512-60.209-31.512" fill="#757779" clip-path="url(#b)"/><path d="M63.062 2.297c-33.244 0-60.197 14.105-60.197 31.506 0 17.396 26.953 31.501 60.197 31.501 33.246 0 60.203-14.104 60.203-31.501 0-17.401-26.957-31.506-60.203-31.506" fill="#76777A" clip-path="url(#b)"/><path d="M63.062 2.304c-33.24 0-60.189 14.102-60.189 31.5 0 17.392 26.95 31.495 60.189 31.495 33.243 0 60.196-14.104 60.196-31.495 0-17.398-26.953-31.5-60.196-31.5" fill="#77787B" clip-path="url(#b)"/><path d="M63.063 2.311c-33.237 0-60.185 14.099-60.185 31.493 0 17.39 26.947 31.489 60.185 31.489s60.188-14.1 60.188-31.489c.001-17.394-26.949-31.493-60.188-31.493" fill="#77797C" clip-path="url(#b)"/><path d="M63.063 2.317c-33.233 0-60.177 14.096-60.177 31.487 0 17.386 26.944 31.483 60.177 31.483 33.235 0 60.183-14.098 60.183-31.483 0-17.391-26.947-31.487-60.183-31.487" fill="#787A7C" clip-path="url(#b)"/><path d="M63.064 2.323c-33.23 0-60.171 14.093-60.171 31.481 0 17.382 26.941 31.478 60.171 31.478 33.231 0 60.176-14.096 60.176-31.478 0-17.388-26.944-31.481-60.176-31.481" fill="#797B7D" clip-path="url(#b)"/><path d="M63.064 2.33C29.839 2.33 2.9 16.42 2.9 33.805c0 17.379 26.939 31.47 60.165 31.47 33.229 0 60.171-14.091 60.171-31.47C123.235 16.42 96.293 2.33 63.064 2.33" fill="#7A7B7E" clip-path="url(#b)"/><path d="M63.065 2.336c-33.223 0-60.158 14.088-60.158 31.468 0 17.376 26.935 31.465 60.158 31.465 33.225 0 60.163-14.089 60.163-31.465.001-17.38-26.938-31.468-60.163-31.468" fill="#7A7C7F" clip-path="url(#b)"/><path d="M63.066 2.343c-33.219 0-60.151 14.084-60.151 31.462 0 17.372 26.932 31.458 60.151 31.458 33.221 0 60.156-14.086 60.156-31.458.001-17.378-26.935-31.462-60.156-31.462" fill="#7B7D7F" clip-path="url(#b)"/><path d="M63.067 2.349c-33.215 0-60.146 14.082-60.146 31.456 0 17.368 26.93 31.452 60.146 31.452 33.217 0 60.149-14.084 60.149-31.452.001-17.374-26.932-31.456-60.149-31.456" fill="#7C7E80" clip-path="url(#b)"/><path d="M63.068 2.355c-33.212 0-60.14 14.079-60.14 31.45 0 17.365 26.927 31.446 60.14 31.446s60.144-14.081 60.144-31.446c0-17.37-26.931-31.45-60.144-31.45" fill="#7D7E81" clip-path="url(#b)"/><path d="M63.068 2.362c-33.208 0-60.131 14.077-60.131 31.443 0 17.361 26.923 31.439 60.131 31.439 33.209 0 60.137-14.078 60.137-31.439 0-17.366-26.928-31.443-60.137-31.443" fill="#7D7F82" clip-path="url(#b)"/><path d="M63.068 2.369c-33.205 0-60.125 14.074-60.125 31.437 0 17.358 26.92 31.434 60.125 31.434 33.206 0 60.131-14.075 60.131-31.434 0-17.363-26.925-31.437-60.131-31.437" fill="#7E8082" clip-path="url(#b)"/><path d="M63.069 2.375c-33.201 0-60.119 14.07-60.119 31.431 0 17.354 26.918 31.428 60.119 31.428 33.202 0 60.124-14.073 60.124-31.428 0-17.361-26.922-31.431-60.124-31.431" fill="#7F8183" clip-path="url(#b)"/><path d="M63.07 2.381c-33.197 0-60.112 14.069-60.112 31.425 0 17.353 26.915 31.422 60.112 31.422 33.199 0 60.117-14.069 60.117-31.422C123.188 16.45 96.27 2.381 63.07 2.381" fill="#808184" clip-path="url(#b)"/><path d="M63.07 2.388c-33.192 0-60.104 14.066-60.104 31.419 0 17.348 26.912 31.415 60.104 31.415 33.195 0 60.111-14.067 60.111-31.415.001-17.353-26.915-31.419-60.111-31.419" fill="#808285" clip-path="url(#b)"/><path d="M63.071 2.394c-33.189 0-60.099 14.063-60.099 31.413 0 17.345 26.91 31.409 60.099 31.409 33.192 0 60.104-14.064 60.104-31.409.001-17.35-26.911-31.413-60.104-31.413" fill="#818385" clip-path="url(#b)"/><path d="M63.072 2.4C29.885 2.4 2.98 16.46 2.98 33.807c0 17.342 26.905 31.402 60.092 31.402s60.098-14.061 60.098-31.402C123.17 16.46 96.26 2.4 63.072 2.4" fill="#828486" clip-path="url(#b)"/><path d="M63.073 2.407c-33.184 0-60.085 14.057-60.085 31.4 0 17.338 26.902 31.396 60.085 31.396s60.091-14.059 60.091-31.396c0-17.343-26.907-31.4-60.091-31.4" fill="#828487" clip-path="url(#b)"/><path d="M63.073 2.414c-33.178 0-60.079 14.054-60.079 31.394 0 17.335 26.901 31.391 60.079 31.391 33.181 0 60.084-14.056 60.084-31.391 0-17.34-26.903-31.394-60.084-31.394" fill="#838588" clip-path="url(#b)"/><path d="M63.074 2.42c-33.176 0-60.073 14.052-60.073 31.387 0 17.331 26.897 31.384 60.073 31.384 33.177 0 60.078-14.053 60.078-31.384 0-17.335-26.901-31.387-60.078-31.387" fill="#848688" clip-path="url(#b)"/><path d="M63.074 2.426c-33.171 0-60.065 14.048-60.065 31.381 0 17.328 26.894 31.378 60.065 31.378 33.174 0 60.071-14.05 60.071-31.378.001-17.333-26.897-31.381-60.071-31.381" fill="#858789" clip-path="url(#b)"/><path d="M63.076 2.433c-33.168 0-60.061 14.046-60.061 31.375 0 17.324 26.892 31.372 60.061 31.372s60.063-14.048 60.063-31.372c.001-17.329-26.894-31.375-60.063-31.375" fill="#85878A" clip-path="url(#b)"/><path d="M63.077 2.439c-33.166 0-60.053 14.043-60.053 31.369 0 17.32 26.888 31.365 60.053 31.365 33.166 0 60.058-14.045 60.058-31.365 0-17.326-26.892-31.369-60.058-31.369" fill="#86888B" clip-path="url(#b)"/><path d="M63.077 2.446c-33.162 0-60.046 14.04-60.046 31.363 0 17.317 26.885 31.359 60.046 31.359s60.052-14.042 60.052-31.359c0-17.323-26.891-31.363-60.052-31.363" fill="#87898B" clip-path="url(#b)"/><path d="M63.077 2.452c-33.157 0-60.04 14.038-60.04 31.356 0 17.313 26.883 31.353 60.04 31.353 33.159 0 60.045-14.039 60.045-31.353 0-17.318-26.886-31.356-60.045-31.356" fill="#888A8C" clip-path="url(#b)"/><path d="M63.078 2.458c-33.154 0-60.033 14.035-60.033 31.35 0 17.311 26.879 31.348 60.033 31.348 33.155 0 60.039-14.037 60.039-31.348 0-17.314-26.884-31.35-60.039-31.35" fill="#888A8D" clip-path="url(#b)"/><path d="M63.079 2.465c-33.15 0-60.027 14.032-60.027 31.345 0 17.308 26.877 31.341 60.027 31.341 33.151 0 60.032-14.033 60.032-31.341 0-17.313-26.881-31.345-60.032-31.345" fill="#898B8E" clip-path="url(#b)"/><path d="M63.079 2.471c-33.146 0-60.02 14.03-60.02 31.338 0 17.304 26.874 31.335 60.02 31.335 33.148 0 60.025-14.031 60.025-31.335 0-17.308-26.876-31.338-60.025-31.338" fill="#8A8C8E" clip-path="url(#b)"/><path d="M63.08 2.478c-33.144 0-60.014 14.026-60.014 31.332 0 17.3 26.87 31.329 60.014 31.329 33.145 0 60.019-14.029 60.019-31.329 0-17.307-26.874-31.332-60.019-31.332" fill="#8B8D8F" clip-path="url(#b)"/><path d="M63.081 2.484c-33.14 0-60.007 14.024-60.007 31.326 0 17.297 26.868 31.321 60.007 31.321 33.141 0 60.013-14.024 60.013-31.321 0-17.302-26.872-31.326-60.013-31.326" fill="#8B8D90" clip-path="url(#b)"/><path d="M63.081 2.491c-33.135 0-60 14.021-60 31.319 0 17.293 26.865 31.316 60 31.316 33.138 0 60.007-14.023 60.007-31.316 0-17.298-26.869-31.319-60.007-31.319" fill="#8C8E91" clip-path="url(#b)"/><path d="M63.081 2.497C29.95 2.497 3.088 16.515 3.088 33.81c0 17.291 26.861 31.31 59.993 31.31 33.135 0 60-14.019 60-31.31 0-17.295-26.865-31.313-60-31.313" fill="#8D8F92" clip-path="url(#b)"/><path d="M63.082 2.503c-33.128 0-59.987 14.016-59.987 31.307 0 17.287 26.859 31.304 59.987 31.304 33.13 0 59.993-14.017 59.993-31.304 0-17.29-26.863-31.307-59.993-31.307" fill="#8E9092" clip-path="url(#b)"/><path d="M63.084 2.51c-33.125 0-59.981 14.012-59.981 31.301 0 17.282 26.856 31.297 59.981 31.297 33.126 0 59.985-14.015 59.985-31.297 0-17.289-26.859-31.301-59.985-31.301" fill="#8E9093" clip-path="url(#b)"/><path d="M63.085 2.517c-33.123 0-59.976 14.009-59.976 31.294 0 17.279 26.853 31.291 59.976 31.291 33.122 0 59.979-14.012 59.979-31.291-.001-17.285-26.857-31.294-59.979-31.294" fill="#8F9194" clip-path="url(#b)"/><path d="M63.085 2.523c-33.118 0-59.967 14.007-59.967 31.289 0 17.276 26.85 31.285 59.967 31.285 33.118 0 59.973-14.009 59.973-31.285 0-17.282-26.855-31.289-59.973-31.289" fill="#909295" clip-path="url(#b)"/><path d="M63.085 2.529c-33.114 0-59.961 14.004-59.961 31.282 0 17.272 26.847 31.279 59.961 31.279 33.116 0 59.966-14.007 59.966-31.279 0-17.278-26.85-31.282-59.966-31.282" fill="#919395" clip-path="url(#b)"/><path d="M63.086 2.536c-33.11 0-59.955 14.001-59.955 31.275 0 17.27 26.845 31.273 59.955 31.273 33.111 0 59.959-14.004 59.959-31.273 0-17.274-26.848-31.275-59.959-31.275" fill="#919396" clip-path="url(#b)"/><path d="M63.087 2.542c-33.106 0-59.948 13.999-59.948 31.27 0 17.266 26.842 31.267 59.948 31.267 33.108 0 59.953-14.001 59.953-31.267 0-17.27-26.845-31.27-59.953-31.27" fill="#929497" clip-path="url(#b)"/><path d="M63.088 2.549c-33.104 0-59.941 13.996-59.941 31.264 0 17.263 26.838 31.26 59.941 31.26s59.945-13.997 59.945-31.26c0-17.268-26.842-31.264-59.945-31.264" fill="#939598" clip-path="url(#b)"/><path d="M63.088 2.555c-33.1 0-59.936 13.994-59.936 31.258 0 17.259 26.836 31.254 59.936 31.254 33.101 0 59.939-13.995 59.939-31.254 0-17.264-26.839-31.258-59.939-31.258" fill="#949698" clip-path="url(#b)"/><path d="M63.089 2.562c-33.097 0-59.929 13.99-59.929 31.251 0 17.256 26.832 31.249 59.929 31.249 33.098 0 59.934-13.993 59.934-31.249-.001-17.262-26.836-31.251-59.934-31.251" fill="#949699" clip-path="url(#b)"/><path d="M63.09 2.568c-33.092 0-59.921 13.987-59.921 31.245 0 17.252 26.829 31.242 59.921 31.242 33.094 0 59.927-13.99 59.927-31.242 0-17.258-26.833-31.245-59.927-31.245" fill="#95979A" clip-path="url(#b)"/><path d="M63.09 2.575c-33.088 0-59.915 13.985-59.915 31.238 0 17.25 26.827 31.236 59.915 31.236 33.09 0 59.92-13.986 59.92-31.236 0-17.253-26.83-31.238-59.92-31.238" fill="#96989B" clip-path="url(#b)"/><path d="M63.09 2.581c-33.084 0-59.908 13.982-59.908 31.232 0 17.246 26.824 31.23 59.908 31.23 33.086 0 59.914-13.984 59.914-31.23 0-17.25-26.828-31.232-59.914-31.232" fill="#97999B" clip-path="url(#b)"/><path d="M63.091 2.587C30.01 2.587 3.19 16.566 3.19 33.813c0 17.242 26.82 31.224 59.901 31.224 33.083 0 59.908-13.981 59.908-31.224 0-17.247-26.825-31.226-59.908-31.226" fill="#979A9C" clip-path="url(#b)"/><path d="M63.092 2.594c-33.078 0-59.895 13.976-59.895 31.22 0 17.238 26.817 31.217 59.895 31.217 33.079 0 59.901-13.979 59.901-31.217 0-17.244-26.822-31.22-59.901-31.22" fill="#989A9D" clip-path="url(#b)"/><path d="M63.093 2.601c-33.074 0-59.889 13.973-59.889 31.214 0 17.235 26.815 31.211 59.889 31.211 33.075 0 59.894-13.976 59.894-31.211-.001-17.241-26.819-31.214-59.894-31.214" fill="#999B9E" clip-path="url(#b)"/><path d="M63.093 2.606c-33.07 0-59.882 13.971-59.882 31.208 0 17.23 26.812 31.204 59.882 31.204 33.072 0 59.888-13.974 59.888-31.204-.001-17.236-26.816-31.208-59.888-31.208" fill="#9A9C9E" clip-path="url(#b)"/><path d="M63.094 2.613c-33.067 0-59.875 13.968-59.875 31.201 0 17.229 26.808 31.199 59.875 31.199 33.068 0 59.881-13.971 59.881-31.199 0-17.233-26.813-31.201-59.881-31.201" fill="#9B9D9F" clip-path="url(#b)"/><path d="M63.095 2.62c-33.063 0-59.869 13.965-59.869 31.195 0 17.226 26.806 31.193 59.869 31.193 33.065 0 59.875-13.968 59.875-31.193 0-17.231-26.81-31.195-59.875-31.195" fill="#9B9DA0" clip-path="url(#b)"/><path d="M63.095 2.626c-33.06 0-59.862 13.963-59.862 31.189 0 17.222 26.803 31.187 59.862 31.187 33.062 0 59.868-13.965 59.868-31.187 0-17.226-26.807-31.189-59.868-31.189" fill="#9C9EA1" clip-path="url(#b)"/><path d="M63.095 2.632C30.039 2.632 3.24 16.591 3.24 33.815c0 17.218 26.8 31.181 59.855 31.181 33.059 0 59.862-13.963 59.862-31.181 0-17.224-26.804-31.183-59.862-31.183" fill="#9D9FA2" clip-path="url(#b)"/><path d="M63.097 2.639c-33.052 0-59.85 13.957-59.85 31.176 0 17.215 26.797 31.175 59.85 31.175 33.054 0 59.854-13.96 59.854-31.175 0-17.219-26.801-31.176-59.854-31.176" fill="#9EA0A2" clip-path="url(#b)"/><path d="M63.098 2.646c-33.049 0-59.843 13.954-59.843 31.17 0 17.212 26.794 31.168 59.843 31.168 33.05 0 59.848-13.956 59.848-31.168-.001-17.216-26.799-31.17-59.848-31.17" fill="#9EA1A3" clip-path="url(#b)"/><path d="M63.098 2.652c-33.045 0-59.836 13.951-59.836 31.164 0 17.208 26.791 31.162 59.836 31.162 33.046 0 59.842-13.954 59.842-31.162-.001-17.213-26.796-31.164-59.842-31.164" fill="#9FA1A4" clip-path="url(#b)"/><path d="M63.098 2.658c-33.041 0-59.83 13.949-59.83 31.158 0 17.205 26.789 31.155 59.83 31.155 33.043 0 59.836-13.95 59.836-31.155 0-17.209-26.793-31.158-59.836-31.158" fill="#A0A2A5" clip-path="url(#b)"/><path d="M63.099 2.665c-33.038 0-59.823 13.946-59.823 31.152 0 17.201 26.785 31.149 59.823 31.149 33.039 0 59.829-13.948 59.829-31.149 0-17.207-26.79-31.152-59.829-31.152" fill="#A1A3A5" clip-path="url(#b)"/><path d="M63.1 2.671c-33.034 0-59.817 13.942-59.817 31.145 0 17.198 26.783 31.144 59.817 31.144 33.036 0 59.822-13.945 59.822-31.144 0-17.203-26.786-31.145-59.822-31.145" fill="#A2A4A6" clip-path="url(#b)"/><path d="M63.1 2.678c-33.029 0-59.81 13.94-59.81 31.139 0 17.194 26.78 31.138 59.81 31.138 33.032 0 59.816-13.943 59.816-31.138 0-17.199-26.784-31.139-59.816-31.139" fill="#A2A4A7" clip-path="url(#b)"/><path d="M63.101 2.684c-33.026 0-59.803 13.938-59.803 31.133 0 17.19 26.777 31.131 59.803 31.131 33.029 0 59.809-13.94 59.809-31.131-.001-17.195-26.78-31.133-59.809-31.133" fill="#A3A5A8" clip-path="url(#b)"/><path d="M63.102 2.69c-33.023 0-59.797 13.935-59.797 31.127 0 17.188 26.774 31.125 59.797 31.125 33.025 0 59.802-13.938 59.802-31.125C122.903 16.625 96.127 2.69 63.102 2.69" fill="#A4A6A9" clip-path="url(#b)"/><path d="M63.103 2.697c-33.021 0-59.792 13.932-59.792 31.121 0 17.185 26.771 31.119 59.792 31.119s59.796-13.935 59.796-31.119c-.001-17.189-26.776-31.121-59.796-31.121" fill="#A5A7A9" clip-path="url(#b)"/><path d="M63.103 2.704c-33.016 0-59.784 13.929-59.784 31.114 0 17.182 26.768 31.113 59.784 31.113 33.018 0 59.789-13.932 59.789-31.113 0-17.185-26.772-31.114-59.789-31.114" fill="#A5A8AA" clip-path="url(#b)"/><path d="M63.104 2.71c-33.012 0-59.777 13.926-59.777 31.108 0 17.178 26.765 31.105 59.777 31.105 33.014 0 59.783-13.928 59.783-31.105 0-17.182-26.77-31.108-59.783-31.108" fill="#A6A8AB" clip-path="url(#b)"/><path d="M63.104 2.716c-33.008 0-59.771 13.923-59.771 31.102 0 17.174 26.762 31.101 59.771 31.101 33.012 0 59.776-13.927 59.776-31.101 0-17.179-26.765-31.102-59.776-31.102" fill="#A7A9AC" clip-path="url(#b)"/><path d="M63.104 2.723C30.1 2.723 3.34 16.643 3.34 33.818c0 17.17 26.759 31.094 59.764 31.094 33.007 0 59.77-13.924 59.77-31.094 0-17.175-26.763-31.095-59.77-31.095" fill="#A8AAAD" clip-path="url(#b)"/><path d="M63.105 2.729c-33.001 0-59.758 13.918-59.758 31.09 0 17.167 26.757 31.087 59.758 31.087 33.003 0 59.763-13.92 59.763-31.087 0-17.172-26.76-31.09-59.763-31.09" fill="#A9ABAD" clip-path="url(#b)"/><path d="M63.106 2.736c-32.999 0-59.751 13.915-59.751 31.083 0 17.164 26.753 31.082 59.751 31.082 33 0 59.756-13.918 59.756-31.082 0-17.168-26.756-31.083-59.756-31.083" fill="#A9ACAE" clip-path="url(#b)"/><path d="M63.106 2.742c-32.994 0-59.745 13.912-59.745 31.077 0 17.16 26.751 31.075 59.745 31.075 32.996 0 59.75-13.915 59.75-31.075 0-17.165-26.753-31.077-59.75-31.077" fill="#AAACAF" clip-path="url(#b)"/><path d="M63.107 2.749c-32.991 0-59.737 13.909-59.737 31.07 0 17.157 26.747 31.069 59.738 31.069 32.992 0 59.743-13.912 59.743-31.069 0-17.161-26.751-31.07-59.744-31.07" fill="#ABADB0" clip-path="url(#b)"/><path d="M63.107 2.755c-32.986 0-59.73 13.907-59.73 31.065 0 17.152 26.744 31.063 59.73 31.063 32.989 0 59.737-13.91 59.737-31.063.001-17.158-26.747-31.065-59.737-31.065" fill="#ACAEB0" clip-path="url(#b)"/><path d="M63.108 2.761c-32.983 0-59.725 13.904-59.725 31.059 0 17.149 26.742 31.057 59.725 31.057 32.985 0 59.73-13.907 59.73-31.057.001-17.155-26.744-31.059-59.73-31.059" fill="#ADAFB1" clip-path="url(#b)"/><path d="M63.109 2.768c-32.979 0-59.717 13.9-59.717 31.052 0 17.146 26.739 31.052 59.718 31.052 32.981 0 59.724-13.905 59.724-31.052-.001-17.152-26.743-31.052-59.725-31.052" fill="#AEB0B2" clip-path="url(#b)"/><path d="M63.11 2.774c-32.977 0-59.711 13.898-59.711 31.046 0 17.144 26.735 31.045 59.711 31.045 32.978 0 59.717-13.901 59.717-31.045 0-17.148-26.739-31.046-59.717-31.046" fill="#AEB0B3" clip-path="url(#b)"/><path d="M63.11 2.781c-32.973 0-59.705 13.896-59.705 31.04 0 17.141 26.732 31.039 59.705 31.039 32.975 0 59.71-13.898 59.71-31.039 0-17.144-26.735-31.04-59.71-31.04" fill="#AFB1B4" clip-path="url(#b)"/><path d="M63.111 2.787c-32.969 0-59.699 13.893-59.699 31.034 0 17.136 26.73 31.031 59.699 31.031 32.97 0 59.704-13.896 59.704-31.031 0-17.141-26.734-31.034-59.704-31.034" fill="#B0B2B4" clip-path="url(#b)"/><path d="M63.111 2.793c-32.964 0-59.691 13.89-59.691 31.028 0 17.133 26.727 31.025 59.691 31.025 32.968 0 59.697-13.893 59.697-31.025.001-17.137-26.729-31.028-59.697-31.028" fill="#B1B3B5" clip-path="url(#b)"/><path d="M63.113 2.8C30.151 2.8 3.427 16.687 3.427 33.82c0 17.131 26.724 31.021 59.687 31.021 32.963 0 59.69-13.89 59.69-31.021 0-17.133-26.728-31.02-59.691-31.02" fill="#B2B4B6" clip-path="url(#b)"/><path d="M63.113 2.807c-32.958 0-59.679 13.884-59.679 31.015 0 17.126 26.721 31.014 59.679 31.014 32.959 0 59.684-13.888 59.684-31.014 0-17.132-26.725-31.015-59.684-31.015" fill="#B2B4B7" clip-path="url(#b)"/><path d="M63.114 2.813c-32.955 0-59.672 13.882-59.672 31.009 0 17.122 26.718 31.007 59.672 31.007 32.955 0 59.678-13.885 59.678-31.007 0-17.127-26.723-31.009-59.678-31.009" fill="#B3B5B8" clip-path="url(#b)"/><path d="M63.114 2.819c-32.95 0-59.666 13.879-59.666 31.003 0 17.119 26.716 31.001 59.666 31.001 32.953 0 59.671-13.882 59.671-31.001 0-17.124-26.718-31.003-59.671-31.003" fill="#B4B6B8" clip-path="url(#b)"/><path d="M63.115 2.826c-32.947 0-59.659 13.876-59.659 30.997 0 17.115 26.712 30.995 59.659 30.995 32.949 0 59.665-13.88 59.665-30.995 0-17.121-26.716-30.997-59.665-30.997" fill="#B5B7B9" clip-path="url(#b)"/><path d="M63.115 2.833c-32.942 0-59.651 13.873-59.651 30.99 0 17.113 26.709 30.989 59.651 30.989 32.945 0 59.658-13.876 59.658-30.989 0-17.117-26.712-30.99-59.658-30.99" fill="#B6B8BA" clip-path="url(#b)"/><path d="M63.117 2.838c-32.94 0-59.646 13.871-59.646 30.984 0 17.109 26.706 30.983 59.646 30.983s59.65-13.874 59.65-30.983c.001-17.113-26.709-30.984-59.65-30.984" fill="#B7B9BB" clip-path="url(#b)"/><path d="M63.117 2.845c-32.936 0-59.64 13.868-59.64 30.978 0 17.104 26.704 30.977 59.64 30.977 32.938 0 59.645-13.872 59.645-30.977 0-17.11-26.706-30.978-59.645-30.978" fill="#B7B9BC" clip-path="url(#b)"/><path d="M63.118 2.852c-32.933 0-59.633 13.865-59.633 30.972 0 17.103 26.701 30.971 59.633 30.971 32.935 0 59.639-13.868 59.639-30.971 0-17.107-26.704-30.972-59.639-30.972" fill="#B8BABC" clip-path="url(#b)"/><path d="M63.118 2.858c-32.929 0-59.626 13.862-59.626 30.965 0 17.099 26.697 30.965 59.626 30.965 32.931 0 59.632-13.866 59.632-30.965 0-17.103-26.701-30.965-59.632-30.965" fill="#B9BBBD" clip-path="url(#b)"/><path d="M63.119 2.865c-32.925 0-59.62 13.859-59.62 30.958 0 17.096 26.695 30.958 59.62 30.958 32.927 0 59.625-13.862 59.625-30.958 0-17.099-26.698-30.958-59.625-30.958" fill="#BABCBE" clip-path="url(#b)"/><path d="M63.119 2.871c-32.92 0-59.612 13.856-59.612 30.953 0 17.091 26.692 30.951 59.612 30.951 32.925 0 59.619-13.86 59.619-30.951 0-17.097-26.694-30.953-59.619-30.953" fill="#BBBDBF" clip-path="url(#b)"/><path d="M63.12 2.877c-32.917 0-59.606 13.854-59.606 30.947 0 17.088 26.689 30.945 59.606 30.945 32.92 0 59.612-13.857 59.612-30.945 0-17.093-26.692-30.947-59.612-30.947" fill="#BCBDC0" clip-path="url(#b)"/><path d="M63.121 2.884c-32.915 0-59.6 13.851-59.6 30.941 0 17.085 26.685 30.938 59.6 30.938 32.916 0 59.605-13.854 59.605-30.938.001-17.09-26.689-30.941-59.605-30.941" fill="#BCBEC0" clip-path="url(#b)"/><path d="M63.122 2.89C30.21 2.89 3.529 16.738 3.529 33.825c0 17.081 26.682 30.933 59.593 30.933 32.912 0 59.599-13.852 59.599-30.933 0-17.087-26.687-30.935-59.599-30.935" fill="#BDBFC1" clip-path="url(#b)"/><path d="M63.122 2.896c-32.907 0-59.587 13.846-59.587 30.928 0 17.078 26.68 30.928 59.587 30.928 32.909 0 59.593-13.85 59.593-30.928 0-17.081-26.684-30.928-59.593-30.928" fill="#BEC0C2" clip-path="url(#b)"/><path d="M63.123 2.903c-32.904 0-59.581 13.842-59.581 30.922 0 17.075 26.677 30.921 59.581 30.921 32.905 0 59.586-13.846 59.586-30.921 0-17.08-26.681-30.922-59.586-30.922" fill="#BFC1C3" clip-path="url(#b)"/><path d="M63.123 2.91c-32.899 0-59.574 13.84-59.574 30.917 0 17.07 26.674 30.914 59.574 30.914 32.902 0 59.58-13.844 59.58-30.914 0-17.077-26.678-30.917-59.58-30.917" fill="#C0C2C4" clip-path="url(#b)"/><path d="M63.124 2.916c-32.896 0-59.566 13.837-59.566 30.91 0 17.067 26.671 30.908 59.566 30.908 32.898 0 59.573-13.841 59.573-30.908 0-17.073-26.675-30.91-59.573-30.91" fill="#C1C2C4" clip-path="url(#b)"/><path d="M63.125 2.922c-32.893 0-59.561 13.834-59.561 30.904 0 17.064 26.668 30.902 59.561 30.902 32.895 0 59.566-13.838 59.566-30.902 0-17.07-26.671-30.904-59.566-30.904" fill="#C1C3C5" clip-path="url(#b)"/><path d="M63.126 2.929c-32.89 0-59.555 13.832-59.555 30.897 0 17.061 26.665 30.896 59.555 30.896 32.891 0 59.56-13.836 59.56-30.896 0-17.065-26.669-30.897-59.56-30.897" fill="#C2C4C6" clip-path="url(#b)"/><path d="M63.127 2.936c-32.886 0-59.548 13.829-59.548 30.891 0 17.058 26.662 30.891 59.548 30.891 32.887 0 59.553-13.833 59.553-30.891 0-17.062-26.666-30.891-59.553-30.891" fill="#C3C5C7" clip-path="url(#b)"/><path d="M63.127 2.942c-32.882 0-59.541 13.826-59.541 30.885 0 17.054 26.659 30.884 59.541 30.884 32.884 0 59.546-13.83 59.546-30.884 0-17.059-26.662-30.885-59.546-30.885" fill="#C4C6C8" clip-path="url(#b)"/><path d="M63.127 2.948c-32.877 0-59.535 13.823-59.535 30.878 0 17.051 26.657 30.878 59.535 30.878 32.881 0 59.54-13.827 59.54-30.878 0-17.055-26.659-30.878-59.54-30.878" fill="#C5C6C8" clip-path="url(#b)"/><path d="M63.128 2.955c-32.875 0-59.527 13.82-59.527 30.873 0 17.048 26.653 30.871 59.527 30.871 32.877 0 59.533-13.823 59.533-30.871 0-17.054-26.656-30.873-59.533-30.873" fill="#C5C7C9" clip-path="url(#b)"/><path d="M63.129 2.961c-32.871 0-59.521 13.818-59.521 30.866 0 17.044 26.65 30.865 59.521 30.865 32.873 0 59.527-13.821 59.527-30.865 0-17.048-26.654-30.866-59.527-30.866" fill="#C5C7C9" clip-path="url(#b)"/><path d="M63.13 2.967c-32.868 0-59.516 13.815-59.516 30.86 0 17.041 26.648 30.859 59.516 30.859 32.868 0 59.521-13.818 59.521-30.859-.001-17.045-26.653-30.86-59.521-30.86" fill="#C7C9CB" clip-path="url(#b)"/><path d="M63.131 2.974c-32.864 0-59.508 13.812-59.508 30.854 0 17.037 26.644 30.853 59.508 30.853 32.864 0 59.514-13.815 59.514-30.853 0-17.042-26.65-30.854-59.514-30.854" fill="#C8CACC" clip-path="url(#b)"/><path d="M63.131 2.98c-32.86 0-59.502 13.809-59.502 30.848 0 17.033 26.642 30.847 59.502 30.847 32.862 0 59.507-13.813 59.507-30.847 0-17.038-26.645-30.848-59.507-30.848" fill="#C9CBCC" clip-path="url(#b)"/><path d="M63.131 2.987c-32.855 0-59.495 13.807-59.495 30.841 0 17.03 26.639 30.841 59.495 30.841 32.858 0 59.5-13.811 59.5-30.841 0-17.034-26.642-30.841-59.5-30.841" fill="#CACBCD" clip-path="url(#b)"/><path d="M63.132 2.993c-32.853 0-59.488 13.804-59.488 30.835 0 17.027 26.635 30.835 59.488 30.835 32.854 0 59.494-13.808 59.494-30.835 0-17.031-26.64-30.835-59.494-30.835" fill="#CBCCCE" clip-path="url(#b)"/><path d="M63.133 3C30.284 3 3.651 16.801 3.651 33.829c0 17.022 26.633 30.828 59.482 30.828 32.851 0 59.487-13.806 59.487-30.828C122.62 16.801 95.983 3 63.133 3" fill="#CBCDCF" clip-path="url(#b)"/><path d="M63.133 3.006c-32.845 0-59.476 13.798-59.476 30.823 0 17.021 26.631 30.822 59.476 30.822 32.849 0 59.481-13.802 59.481-30.822 0-17.025-26.633-30.823-59.481-30.823" fill="#CCCED0" clip-path="url(#b)"/><path d="M63.135 3.013c-32.842 0-59.469 13.795-59.469 30.816 0 17.017 26.627 30.816 59.469 30.816 32.844 0 59.474-13.8 59.474-30.816-.001-17.021-26.63-30.816-59.474-30.816" fill="#CDCFD0" clip-path="url(#b)"/><path d="M63.135 3.019c-32.838 0-59.462 13.792-59.462 30.811 0 17.012 26.624 30.81 59.462 30.81 32.84 0 59.468-13.798 59.468-30.81 0-17.019-26.628-30.811-59.468-30.811" fill="#CECFD1" clip-path="url(#b)"/><path d="M63.136 3.025c-32.834 0-59.457 13.79-59.457 30.804 0 17.011 26.622 30.804 59.457 30.804 32.836 0 59.461-13.793 59.461-30.804 0-17.014-26.625-30.804-59.461-30.804" fill="#CFD0D2" clip-path="url(#b)"/><path d="M63.136 3.032c-32.831 0-59.449 13.787-59.449 30.798 0 17.006 26.618 30.797 59.449 30.797 32.833 0 59.455-13.791 59.455-30.797 0-17.011-26.622-30.798-59.455-30.798" fill="#CFD0D2" clip-path="url(#b)"/><path d="M63.137 3.039c-32.828 0-59.443 13.784-59.443 30.792 0 17.002 26.615 30.791 59.443 30.791 32.829 0 59.448-13.789 59.448-30.791 0-17.008-26.619-30.792-59.448-30.792" fill="#D0D1D3" clip-path="url(#b)"/><path d="M63.137 3.045c-32.824 0-59.436 13.781-59.436 30.785 0 17 26.612 30.785 59.436 30.785 32.826 0 59.442-13.785 59.442-30.785 0-17.004-26.616-30.785-59.442-30.785" fill="#D0D2D3" clip-path="url(#b)"/><path d="M63.139 3.051c-32.82 0-59.431 13.779-59.431 30.779 0 16.996 26.61 30.779 59.431 30.779s59.435-13.783 59.435-30.779c-.001-17-26.614-30.779-59.435-30.779" fill="#D2D3D5" clip-path="url(#b)"/><path d="M63.139 3.058c-32.816 0-59.423 13.776-59.423 30.773 0 16.992 26.607 30.772 59.423 30.772 32.818 0 59.428-13.78 59.428-30.772-.001-16.998-26.61-30.773-59.428-30.773" fill="#D3D4D6" clip-path="url(#b)"/><path d="M63.14 3.064c-32.813 0-59.417 13.773-59.417 30.767 0 16.989 26.604 30.767 59.417 30.767 32.814 0 59.422-13.777 59.422-30.767 0-16.994-26.608-30.767-59.422-30.767" fill="#D4D5D7" clip-path="url(#b)"/><path d="M63.14 3.071c-32.81 0-59.41 13.77-59.41 30.76 0 16.985 26.6 30.761 59.41 30.761 32.812 0 59.415-13.775 59.415-30.761 0-16.99-26.604-30.76-59.415-30.76" fill="#D5D6D7" clip-path="url(#b)"/><path d="M63.141 3.077c-32.806 0-59.403 13.768-59.403 30.754 0 16.983 26.597 30.755 59.403 30.755 32.808 0 59.409-13.771 59.409-30.755 0-16.986-26.602-30.754-59.409-30.754" fill="#D5D7D8" clip-path="url(#b)"/><path d="M63.141 3.083c-32.802 0-59.396 13.765-59.396 30.748 0 16.979 26.594 30.749 59.396 30.749 32.805 0 59.402-13.77 59.402-30.749 0-16.982-26.598-30.748-59.402-30.748" fill="#D6D7D9" clip-path="url(#b)"/><path d="M63.143 3.09c-32.798 0-59.392 13.762-59.392 30.742 0 16.976 26.593 30.742 59.392 30.742 32.8 0 59.396-13.767 59.396-30.742-.001-16.98-26.597-30.742-59.396-30.742" fill="#D7D8DA" clip-path="url(#b)"/><path d="M63.143 3.097c-32.795 0-59.384 13.759-59.384 30.735 0 16.973 26.589 30.736 59.384 30.736 32.796 0 59.389-13.764 59.389-30.736-.001-16.977-26.594-30.735-59.389-30.735" fill="#D8D9DB" clip-path="url(#b)"/><path d="M63.144 3.103c-32.792 0-59.377 13.756-59.377 30.729 0 16.969 26.586 30.729 59.377 30.729 32.793 0 59.383-13.76 59.383-30.729-.001-16.973-26.59-30.729-59.383-30.729" fill="#D8D9DB" clip-path="url(#b)"/><path d="M63.144 3.109c-32.788 0-59.371 13.753-59.371 30.723 0 16.966 26.583 30.724 59.371 30.724 32.789 0 59.376-13.758 59.376-30.724 0-16.97-26.587-30.723-59.376-30.723" fill="#D9DADB" clip-path="url(#b)"/><path d="M63.145 3.116C30.36 3.116 3.78 16.867 3.78 33.833c0 16.962 26.58 30.717 59.364 30.717 32.786 0 59.369-13.755 59.369-30.717.001-16.966-26.582-30.717-59.368-30.717" fill="#D9DBDC" clip-path="url(#b)"/><path d="M63.145 3.122c-32.779 0-59.356 13.748-59.356 30.711 0 16.958 26.577 30.711 59.356 30.711 32.782 0 59.363-13.753 59.363-30.711 0-16.963-26.581-30.711-59.363-30.711" fill="#DADCDD" clip-path="url(#b)"/><path d="M63.146 3.128c-32.777 0-59.352 13.746-59.352 30.705 0 16.955 26.574 30.705 59.352 30.705 32.778 0 59.355-13.75 59.355-30.705.001-16.958-26.577-30.705-59.355-30.705" fill="#DBDCDE" clip-path="url(#b)"/><path d="M63.146 3.135c-32.773 0-59.344 13.742-59.344 30.698 0 16.952 26.571 30.699 59.344 30.699 32.775 0 59.35-13.747 59.35-30.699 0-16.956-26.574-30.698-59.35-30.698" fill="#DDDEDF" clip-path="url(#b)"/><path d="M63.147 3.142c-32.77 0-59.337 13.74-59.337 30.692 0 16.948 26.568 30.692 59.337 30.692 32.771 0 59.343-13.744 59.343-30.692 0-16.952-26.572-30.692-59.343-30.692" fill="#DEDFE0" clip-path="url(#b)"/><path d="M63.147 3.148c-32.766 0-59.332 13.737-59.332 30.686 0 16.945 26.566 30.687 59.332 30.687 32.769 0 59.337-13.741 59.337-30.687 0-16.949-26.568-30.686-59.337-30.686" fill="#DEE0E1" clip-path="url(#b)"/><path d="M63.148 3.154c-32.762 0-59.325 13.734-59.325 30.68 0 16.942 26.563 30.681 59.325 30.681 32.764 0 59.33-13.738 59.33-30.681.001-16.946-26.566-30.68-59.33-30.68" fill="#DFE0E2" clip-path="url(#b)"/><path d="M63.148 3.161c-32.757 0-59.317 13.731-59.317 30.674 0 16.938 26.56 30.674 59.317 30.674 32.762 0 59.324-13.736 59.324-30.674.001-16.943-26.562-30.674-59.324-30.674" fill="#E0E1E2" clip-path="url(#b)"/><path d="M63.15 3.167c-32.755 0-59.313 13.729-59.313 30.667 0 16.935 26.557 30.668 59.313 30.668 32.757 0 59.316-13.733 59.316-30.668.001-16.938-26.559-30.667-59.316-30.667" fill="#E1E2E3" clip-path="url(#b)"/><path d="M63.15 3.174C30.399 3.174 3.845 16.9 3.845 33.835c0 16.931 26.554 30.662 59.305 30.662 32.753 0 59.311-13.731 59.311-30.662 0-16.935-26.558-30.661-59.311-30.661" fill="#E1E2E3" clip-path="url(#b)"/><path d="M63.151 3.18c-32.749 0-59.298 13.723-59.298 30.655 0 16.929 26.55 30.655 59.298 30.655 32.75 0 59.304-13.727 59.304-30.655 0-16.932-26.554-30.655-59.304-30.655" fill="#E2E3E4" clip-path="url(#b)"/><path d="M63.152 3.187c-32.745 0-59.292 13.72-59.292 30.649 0 16.924 26.548 30.648 59.292 30.648 32.745 0 59.297-13.725 59.297-30.648 0-16.929-26.552-30.649-59.297-30.649" fill="#E3E4E5" clip-path="url(#b)"/><path d="M63.152 3.193c-32.74 0-59.285 13.718-59.285 30.643 0 16.921 26.545 30.643 59.285 30.643 32.742 0 59.291-13.722 59.291-30.643 0-16.925-26.548-30.643-59.291-30.643" fill="#E3E4E5" clip-path="url(#b)"/><path d="M63.152 3.2C30.416 3.2 3.874 16.914 3.874 33.836c0 16.918 26.542 30.637 59.278 30.637 32.739 0 59.284-13.719 59.284-30.637C122.437 16.914 95.892 3.2 63.152 3.2" fill="#E4E5E6" clip-path="url(#b)"/><path d="M63.153 3.206c-32.732 0-59.271 13.712-59.271 30.63 0 16.914 26.539 30.631 59.271 30.631 32.735 0 59.277-13.717 59.277-30.631.001-16.918-26.541-30.63-59.277-30.63" fill="#E5E6E7" clip-path="url(#b)"/><path d="M63.154 3.212c-32.729 0-59.266 13.709-59.266 30.624 0 16.911 26.537 30.625 59.266 30.625 32.731 0 59.271-13.714 59.271-30.625.001-16.915-26.539-30.624-59.271-30.624" fill="#E7E8E9" clip-path="url(#b)"/></g><g transform="translate(-2.598 -2.059)"><defs><path d="M4.968 33.792c0 16.145 25.998 29.232 58.068 29.232 32.071 0 58.074-13.088 58.074-29.232 0-16.146-26.003-29.236-58.074-29.236-32.07 0-58.068 13.09-58.068 29.236" id="c"/></defs><clipPath id="e"><use height="100%" width="100%" overflow="visible" xlink:href="#c"/></clipPath><linearGradient gradientTransform="scale(72.23043 -72.23043) rotate(-65 -92.0398 27.694)" y2="100" x2="-26.75" y1="100" x1="-27.75" gradientUnits="userSpaceOnUse" id="d"><stop offset="0" stop-color="#008948"/><stop offset=".3764" stop-color="#008948"/><stop offset=".5955" stop-color="#004e25"/><stop offset="1"/></linearGradient><path fill="url(#d)" clip-path="url(#e)" d="M25.712 107.509l-43.139-92.51 117.793-54.928 43.139 92.51z"/></g><g transform="translate(-2.598 -2.059)"><defs><path id="f" d="M-27.75-48h162v148h-162z"/></defs><clipPath id="g"><use height="100%" width="100%" overflow="visible" xlink:href="#f"/></clipPath><path d="M63.039 8.056c-30.054 0-54.417 11.645-54.417 26.005s24.364 26.003 54.417 26.003c30.055 0 54.422-11.643 54.422-26.003S93.094 8.056 63.039 8.056" stroke-width=".749" stroke="#004E25" fill="none" clip-path="url(#g)"/><path d="M63.037 6.532c-30.86 0-55.879 12.224-55.879 27.301 0 15.073 25.019 27.299 55.879 27.299 30.864 0 55.888-12.226 55.888-27.299 0-15.077-25.024-27.301-55.888-27.301" stroke-width="1.419" stroke="#F5F0CC" fill="none" clip-path="url(#g)"/></g><g transform="translate(-2.598 -2.059)"><defs><path id="h" d="M93.086 25.672l-6.742 2.443-.446 1.346L96.275 25.9l1.145-3.553h-9.134l-1.108 3.325z"/></defs><clipPath id="j"><use height="100%" width="100%" overflow="visible" xlink:href="#h"/></clipPath><linearGradient gradientTransform="scale(55.98363 -55.98363) rotate(-65 -91.7316 26.975)" y2="100" x2="-26.75" y1="100" x1="-27.75" gradientUnits="userSpaceOnUse" id="i"><stop offset="0" stop-color="#004e25"/><stop offset="1"/></linearGradient><path fill="url(#i)" clip-path="url(#j)" d="M87.956 33.874l-4.783-10.256 12.189-5.684 4.783 10.256z"/></g><g transform="translate(-2.598 -2.059)"><defs><path d="M40.145 27.942c.001-.003.002-.008.004-.012zm-5.312-11.296c.64.319.075 1.573.075 1.573s-4.117 11.984-4.403 12.583c-.287.601-.497.675-.497.675h8.895l1.242-3.535c-.123.323-.96.24-.96.24h-3.718s3.446-9.611 3.724-10.335c.403-1.061.674-1.189.757-1.201zm5.115 0h.027s-.004-.002-.012-.002c-.004 0-.009.001-.015.002" id="k"/></defs><clipPath id="m"><use height="100%" width="100%" overflow="visible" xlink:href="#k"/></clipPath><linearGradient gradientTransform="scale(107.94446 -107.94446) rotate(-65 -92.5484 27.5789)" y2="100.002" x2="-26.75" y1="100.002" x1="-27.75" gradientUnits="userSpaceOnUse" id="l"><stop offset="0" stop-color="#004e25"/><stop offset="1"/></linearGradient><path fill="url(#l)" clip-path="url(#m)" d="M31.819 35.362l-7.493-16.069 14.012-6.533 7.493 16.068z"/></g><g transform="translate(-2.598 -2.059)"><defs><path d="M67.514 17.535c-.145.377-2.435 6.781-2.435 6.781l-.895-7.641h-4.338s.225.377.079.784l-4.592 13.183s-.287.82-.538.82h4.19s-.285-.442-.104-.93c.245-.675 2.469-7.006 2.469-7.006l.972 7.936h3.795l4.976-14.112s.206-.665.48-.665l-4.033-.01s.116.487-.026.86" id="n"/></defs><clipPath id="p"><use height="100%" width="100%" overflow="visible" xlink:href="#n"/></clipPath><linearGradient gradientTransform="scale(96.34102 -96.34102) rotate(-65 -92.2426 27.5571)" y2="100" x2="-26.75" y1="100" x1="-27.75" gradientUnits="userSpaceOnUse" id="o"><stop offset="0" stop-color="#004e25"/><stop offset="1"/></linearGradient><path fill="url(#o)" clip-path="url(#p)" d="M57.792 37.888l-8.66-18.572 19.444-9.067 8.66 18.572z"/></g><g transform="translate(-2.598 -2.059)"><defs><path d="M77.361 19.864h1.075s2.785-.173.789 4.902c-1.212 3.094-3.021 3.313-3.992 3.313-.646 0-.667.011-.667.011zm1.363-3.185h-4.763s.358.598-.111 1.985c-.462 1.385-4.118 11.685-4.118 11.685s-.282.971-.678 1.153l5.731-.004s6.95.269 9.1-7.365c0 0 2.693-7.455-5.045-7.455-.039 0-.077.001-.116.001" id="q"/></defs><clipPath id="s"><use height="100%" width="100%" overflow="visible" xlink:href="#q"/></clipPath><linearGradient gradientTransform="scale(86.71339 -86.71339) rotate(-65 -92.0688 27.5058)" y2="100.0186" x2="-26.75" y1="100.0186" x1="-27.75" gradientUnits="userSpaceOnUse" id="r"><stop offset="0" stop-color="#004e25"/><stop offset="1"/></linearGradient><path fill="url(#r)" clip-path="url(#s)" d="M72.184 38.479l-8.91-19.106 20.174-9.407 8.909 19.106z"/></g><g transform="translate(-2.598 -2.059)"><defs><path id="t" d="M32.777 43.422l1.108-3.324h-5.909l6.743-2.446.446-1.344-10.377 3.559-1.145 3.555z"/></defs><clipPath id="v"><use height="100%" width="100%" overflow="visible" xlink:href="#t"/></clipPath><linearGradient gradientTransform="scale(55.98573 -55.98573) rotate(-65 -92.834 27.1717)" y2="99.999" x2="-26.75" y1="99.999" x1="-27.75" gradientUnits="userSpaceOnUse" id="u"><stop offset="0" stop-color="#004e25"/><stop offset="1"/></linearGradient><path fill="url(#u)" clip-path="url(#v)" d="M25.701 47.835l-4.783-10.257 12.189-5.683 4.783 10.256z"/></g><g transform="translate(-2.598 -2.059)"><defs><path d="M43.193 38.132s.525-.01.988-.01c2.136 0 1.373 1.687 1.373 1.687-.653 1.469-2.421 1.304-2.421 1.304h-.905zm2.377-3.41h-5.921c.429.498.095 1.554.095 1.554s-3.679 10.989-3.964 11.842c-.288.848-.813 1.435-.813 1.435h4.682c-.143 0-.143-.481-.143-.481l1.677-4.655s2.093 4.289 2.238 4.589c.141.303.073.548.073.548h5.005c-.481 0-.972-.946-.972-.946l-2.492-4.678c3.486 0 4.606-3.613 4.606-3.613 1.634-5.459-3.522-5.593-4.031-5.593-.026-.002-.04-.002-.04-.002" id="w"/></defs><clipPath id="y"><use height="100%" width="100%" overflow="visible" xlink:href="#w"/></clipPath><linearGradient gradientTransform="scale(86.85315 -86.85315) rotate(-65 -92.578 27.4762)" y2="100.0137" x2="-26.75" y1="100.0137" x1="-27.75" gradientUnits="userSpaceOnUse" id="x"><stop offset="0" stop-color="#004e25"/><stop offset="1"/></linearGradient><path fill="url(#x)" clip-path="url(#y)" d="M37.88 55.798l-8.593-18.427 19.075-8.895 8.593 18.427z"/></g><g transform="translate(-2.598 -2.059)"><defs><path d="M91.451 49.612h-.012.012m3.463-11.391h1.3s1.582-.043.944 1.652c-.536 1.434-2.291 1.297-2.291 1.297h-.906zm2.388-3.441h-5.871c.428.497.098 1.546.098 1.546s-3.835 11.033-4.12 11.881c-.289.851-.837 1.396-.837 1.396l4.868.009c-.334-.011-.097-.908-.097-.908l1.502-4.236s2.02 4.292 2.162 4.59c.146.303.07.555.07.555h5.186c-.478 0-1.001-.949-1.001-.949l-2.495-4.679c3.489 0 4.538-3.48 4.538-3.48 1.669-5.481-3.023-5.727-3.873-5.727-.083-.001-.13.002-.13.002" id="z"/></defs><clipPath id="B"><use height="100%" width="100%" overflow="visible" xlink:href="#z"/></clipPath><linearGradient gradientTransform="scale(86.90424 -86.90424) rotate(-65 -91.9704 27.4972)" y2="100.0137" x2="-26.75" y1="100.0137" x1="-27.75" gradientUnits="userSpaceOnUse" id="A"><stop offset="0" stop-color="#004e25"/><stop offset="1"/></linearGradient><path fill="url(#A)" clip-path="url(#B)" d="M89.501 55.895l-8.612-18.468 19.155-8.933 8.612 18.468z"/></g><g transform="translate(-2.598 -2.059)"><defs><path d="M56.154 46.414c-1.755-.336-1.453-3.18-1.168-4.488.619-2.877 2.146-4.252 3.292-4.105.379.046 2.445.085 1.323 4.778-.667 2.786-1.884 3.854-3.06 3.854a2.1163 2.1163 0 01-.387-.039m-5.552-3.942c-.707 4.14 1.534 7.452 5.228 7.452 5.165 0 8.243-5.303 8.243-9.105 0-3.988-1.567-6.477-5.149-6.477-4.568 0-7.552 3.624-8.322 8.13" id="C"/></defs><clipPath id="E"><use height="100%" width="100%" overflow="visible" xlink:href="#C"/></clipPath><linearGradient gradientTransform="scale(82.48542 -82.48542) rotate(-65 -92.4064 27.4295)" y2="99.9961" x2="-26.75" y1="99.9961" x1="-27.75" gradientUnits="userSpaceOnUse" id="D"><stop offset="0" stop-color="#004e25"/><stop offset="1"/></linearGradient><path fill="url(#D)" clip-path="url(#E)" d="M52.427 55.354l-8.5-18.229 17.614-8.214 8.5 18.23z"/></g><g transform="translate(-2.598 -2.059)"><defs><path d="M65.299 34.78s.358.197.358 1.146V48.76s-.055.705-.306.853h3.841s0-.306.38-.803c.386-.502 8.359-11.687 8.359-11.687s1.817-2.343 2.299-2.343h-5.5s.43.298.098.845c-.339.55-5.221 8.191-5.221 8.191l.063-7.704s-.007-1.235.465-1.339z" id="F"/></defs><clipPath id="H"><use height="100%" width="100%" overflow="visible" xlink:href="#F"/></clipPath><linearGradient gradientTransform="scale(84.1949 -84.1949) rotate(-65 -92.2303 27.433)" y2="100" x2="-26.75" y1="100" x1="-27.75" gradientUnits="userSpaceOnUse" id="G"><stop offset="0" stop-color="#004e25"/><stop offset="1"/></linearGradient><path fill="url(#G)" clip-path="url(#H)" d="M67.966 55.331l-8.351-17.907 17.948-8.37 8.351 17.908z"/></g><g transform="translate(-2.598 -2.059)"><defs><path d="M87.034 40.236a.0322.0322 0 01.002-.006zm-6.59-5.461s.335.31-.094 1.556c-.429 1.247-4.203 11.883-4.203 11.883s-.673 1.398-.86 1.398h9.6l1.146-3.544s-.145.198-1.049.198h-4.056l.857-2.395h3.15s.667-.053.811.146l1.288-3.782c-.019.047-.159.338-.953.338h-3.057l.911-2.648h3.867s.524-.074.714.355l1.239-3.506h-9.311z" id="I"/></defs><clipPath id="K"><use height="100%" width="100%" overflow="visible" xlink:href="#I"/></clipPath><linearGradient gradientTransform="scale(105.711 -105.711) rotate(-65 -92.1241 27.6567)" y2="100" x2="-26.75" y1="100" x1="-27.75" gradientUnits="userSpaceOnUse" id="J"><stop offset="0" stop-color="#004e25"/><stop offset="1"/></linearGradient><path fill="url(#J)" clip-path="url(#K)" d="M77.871 55.154l-8.267-17.729 17.568-8.192 8.266 17.729z"/></g><g transform="translate(-2.598 -2.059)"><defs><path d="M49.946 21.704l.037 4.341h-2.588zm-.808-5.045s.322.41-.287 1.348c-.61.937-8.38 12.983-8.38 12.983s-.151.308-.546.487h4.595s-.016-.368.104-.61c.218-.429.786-1.474.786-1.474h4.626l.009 1.299s.024.45-.314.796h4.583s-.342-.197-.402-.79l-.576-13.031s-.023-.835.355-1.008z" id="L"/></defs><clipPath id="N"><use height="100%" width="100%" overflow="visible" xlink:href="#L"/></clipPath><linearGradient gradientTransform="scale(90.46374 -90.46374) rotate(-65 -92.4091 27.5256)" y2="100.0029" x2="-26.75" y1="100.0029" x1="-27.75" gradientUnits="userSpaceOnUse" id="M"><stop offset="0" stop-color="#004e25"/><stop offset="1"/></linearGradient><path fill="url(#M)" clip-path="url(#N)" d="M42.495 36.999l-8.25-17.691 17.498-8.16 8.25 17.692z"/></g><path fill="#F5F0CC" d="M83.726 22.678h5.908l-6.742 2.443-.446 1.348 10.376-3.561 1.146-3.555h-9.133zm-47.029 2.259l-1.246 3.547h-8.896s.211-.075.498-.675c.286-.598 4.402-12.583 4.402-12.583s.567-1.255-.073-1.575h5.141s-.295-.085-.784 1.201c-.278.725-3.724 10.336-3.724 10.336h3.718c.001.001.857.086.964-.251m14.647 3.531h4.19s-.284-.445-.104-.931c.244-.676 2.468-7.006 2.468-7.006l.972 7.937h3.796l4.977-14.112s.205-.663.479-.663l-4.033-.012s.116.488-.027.859c-.144.378-2.436 6.782-2.436 6.782l-.893-7.641h-4.338s.224.377.08.784c-.116.336-4.593 13.183-4.593 13.183s-.287.82-.538.82m23.928-14.782h-4.764s.36.599-.108 1.985c-.464 1.385-4.121 11.685-4.121 11.685s-.281.973-.677 1.152l5.731-.004s6.95.272 9.1-7.364c0 0 2.721-7.531-5.161-7.454m.503 8.088c-1.214 3.091-3.021 3.313-3.993 3.313-.646 0-.667.008-.667.008l2.795-8.226h1.074c0 .001 2.786-.173.791 4.905M30.433 37.103h-5.908l6.742-2.443.445-1.346-10.376 3.56-1.145 3.556h9.134zm15.756.217c1.719-5.739-4.07-5.592-4.07-5.592h-5.922c.429.497.094 1.553.094 1.553s-3.677 10.99-3.962 11.843c-.288.847-.814 1.435-.814 1.435h4.682c-.143 0-.143-.482-.143-.482l1.677-4.654s2.094 4.289 2.238 4.591c.141.3.074.546.074.546h5.004c-.479 0-.971-.944-.971-.944l-2.492-4.68c3.485-.002 4.605-3.616 4.605-3.616m-4.086-.505c-.654 1.468-2.422 1.303-2.422 1.303h-.904l.964-2.979s.526-.011.988-.011c2.137 0 1.374 1.687 1.374 1.687m55.748.695c1.833-6.02-4.001-5.726-4.001-5.726h-5.871c.428.5.098 1.547.098 1.547s-3.835 11.035-4.12 11.883c-.289.85-.839 1.397-.839 1.397l4.881.006c-.351.01-.107-.907-.107-.907l1.503-4.235s2.018 4.291 2.161 4.589c.146.302.07.554.07.554h5.187c-.479 0-1.003-.949-1.003-.949l-2.494-4.679c3.488 0 4.535-3.48 4.535-3.48m-4.143-.631c-.537 1.433-2.292 1.296-2.292 1.296h-.908l.954-2.947h1.3c-.001 0 1.58-.042.946 1.651m-38.235-5.531c-4.569 0-7.553 3.623-8.323 8.129-.707 4.14 1.533 7.452 5.228 7.452 5.165 0 8.242-5.302 8.242-9.103.001-3.99-1.567-6.478-5.147-6.478m.677 8.257c-.741 3.095-2.161 4.066-3.446 3.816-1.756-.337-1.454-3.18-1.17-4.49.621-2.874 2.148-4.252 3.293-4.104.379.046 2.444.085 1.323 4.778m5.697-7.82s.358.199.358 1.147v12.834s-.055.705-.306.852h3.84s0-.306.382-.802c.386-.5 8.359-11.687 8.359-11.687s1.815-2.345 2.297-2.345h-5.5s.431.299.099.847c-.339.55-5.222 8.191-5.222 8.191l.063-7.706s-.007-1.235.465-1.338l-4.835.007m23.217 3.503l1.24-3.505h-9.311s.334.309-.095 1.558c-.43 1.246-4.203 11.88-4.203 11.88s-.674 1.397-.861 1.397h9.6l1.146-3.543s-.145.198-1.048.198h-4.056l.856-2.394h3.152s.667-.055.811.146l1.289-3.79s-.093.345-.955.345h-3.057l.91-2.647h3.868c.001 0 .525-.075.714.355m-34.203-6.794s-.341-.196-.401-.79l-.576-13.03s-.024-.835.354-1.008h-4.551s.321.408-.288 1.347c-.61.939-8.38 12.983-8.38 12.983s-.151.309-.545.488h4.594s-.017-.369.105-.611c.217-.429.786-1.471.786-1.471h4.626l.009 1.296s.024.453-.314.796zm-6.918-5.443l2.551-4.342.038 4.342z"/></svg>