<svg xmlns="http://www.w3.org/2000/svg" xmlns:xlink="http://www.w3.org/1999/xlink" height="800" width="1200" viewBox="-105.9525 -186.56775 918.255 1119.4065"><defs><linearGradient id="b"><stop offset="0" stop-color="#fff"/><stop offset="1" stop-color="#919191"/></linearGradient><linearGradient id="a"><stop offset="0" stop-color="#999"/><stop offset="1" stop-color="#d7d7d7"/></linearGradient><linearGradient gradientTransform="matrix(1.25 0 0 -1.25 0 747.5)" y2="240.381" x2="478.44" y1="445.668" x1="483.479" gradientUnits="userSpaceOnUse" id="c" xlink:href="#a"/><radialGradient r="35.059" fy="390.012" fx="35.818" cy="390.012" cx="35.818" gradientTransform="matrix(3.61409 -2.70119 -1.66812 -2.23188 548.508 1223.555)" gradientUnits="userSpaceOnUse" id="d" xlink:href="#b"/></defs><path d="M289.99 256.546c-20.834-28.207-45.637-44.03-71.176-56.747-4.138-2.06-8.3-4.04-12.475-5.983 12.097 4.76 23.787 10.2 42.472 20.857 20.495 11.69 38.915 36.626 50.554 53.866 1.444 2.14 2.91 4.28 4.384 6.414-4.533-5.882-9.081-12.074-13.759-18.407" fill="#43565c"/><path d="M83.496 302.207a427.047 427.047 0 003.242 22.28c50.942 170.367 110.208 183.017 255.87 189.464 113.15 5.006 177.921-23.074 216.067-58.237 38.179-35.192 49.911-77.67 56.595-102 4.803-17.485 7.983-34.367 9.381-51.502l81.11-.005c-3.292 55.027-20.59 108.289-57.148 155.43-45.203 55.674-115.878 81.28-177.034 92.922-61.189 11.648-113.119 9.377-121.088 9.124-7.956-.252-37.052.159-72.9-2.947-35.858-3.11-78.58-9.743-113.706-24.14-15.475-6.342-28.847-12.855-40.612-19.7-31.813-19.164-61.23-47.04-75.613-67.503-18.056-25.689-39.73-70.687-45.929-143.179l81.765-.007zm265.115 0c2.48 3.435 4.424 5.44 5.478 5.711.625-.114 1.35-.626 2.419-1.911.831-.999 1.737-2.298 2.697-3.795l70.83-.005c-12.23 9.161-22.819 19.64-32.782 32.187-16.283 20.504-25.597 40.672-28.573 50.497-3.099 10.227-8.992 18.847-9.909 20.126-1.087 1.519-6.078 2.812-7.75-.095-1.72-1.538-3.473-4.705-5.077-8.851-2.095-5.41-4.71-13.877-9.989-24.523-5.252-10.591-13.161-23.372-25.87-37.475-10.972-12.175-22.385-22.849-34.044-31.861l72.57-.005" fill="#657681" fill-rule="evenodd"/><path d="M1.731 302.207C.614 289.15 0 275.194 0 260.297v-.465l.002-.451.002-.453.003-.451c.552-68.743 32.117-131.075 55.118-157.9 3.162-3.688 14.765-16.999 24.787-26.433C108.718 47.028 186.62-4.402 360.242.302 458.987.53 519.127 13.508 559.816 31.16c20.353 8.83 35.809 18.818 48.778 28.93 12.915 10.075 23.357 20.275 33.732 29.582l.278.25.117.354c.066.2 49.153 59.254 60.283 142.836 3.078 23.128 4.123 46.26 2.758 69.088l-81.11.006c1.427-17.492.995-35.25-1.465-54.182-1.728-9.857-3.537-17.74-4.843-22.926.286-.194-1.748 1.569-1.748 1.569s-14.4 8.92-84.147 29.936c-46.377 13.974-77.734 27.11-102.413 45.6l-70.83.002c.198-.304.398-.621.6-.946 2.386-3.833 4.938-8.515 7.294-12.353 5.206-8.476 21.015-30.996 43.49-52.062 21.94-20.565 74.6-44.788 113.511-59.241a453.353 453.353 0 0019.395-7.705c16.011-7.383 31.861-16.75 46.073-26.122-.932-3.632-1.985-5.963-2.552-7.14 0 0-.682-1.772-2.27-4.756-1.617-3.041-4.182-7.37-7.97-12.521-7.583-10.314-20.092-23.96-39.76-37.196-9.14-6.31-22.375-13.306-39.705-20.986-34.506-14.167-81.567-24.659-145.287-24.659-98.709 0-156.438 24.894-189.454 49.64-16.515 12.377-26.876 24.738-33.1 33.98-3.104 4.608-5.184 8.448-6.487 11.137-1.275 2.63-3.176 6.408-3.176 6.408-1.878 5.254.254 7.494 4.087 9.987 7.755 5.04 19.377 11.97 21.511 13.237 9.423 4.678 22.406 10.529 39.008 16.696 38.91 14.454 91.57 38.677 113.51 59.242 22.501 21.09 37.223 44.035 42.402 52.467 2.349 3.823 5.119 8.408 7.741 12.135.184.263.367.518.545.765l-72.57-.006c-15.427-11.922-31.283-20.94-47.11-26.677-28.03-10.162-56.76-16.465-69.375-20.32-6.012-1.838-13.25-4.143-19.188-6.054a2546.539 2546.539 0 01-9.652-3.131l-1.503-.52c-13.634-4.754-27.607-10.757-40.78-18.383-.514-.298-.836-.365-1.01-.371a.587.587 0 00-.378.106c-.144.094-.314.257-.525.535-.24.315-.45.656-.66.97-.76 1.141-3.741 25.444-4.245 54.17.06-.001.449 7.635 1.88 19.679l-81.764-.004" fill="#657681" fill-rule="evenodd"/><path d="M84.63 321.777c51.386 174.262 111.164 187.254 258.13 193.756 226.823 10.038 260.699-112.562 274.076-161.266 14.765-53.756 6.5-124.049 6.5-124.049l23.037 78.564-45.483 147.677-63.796 47.26-67.929 20.672-108.687 12.403-138.81-12.403-78.562-39.575-39.578-56.708-15.356-53.756s-6.5-38.394-3.542-52.575z" fill="#ccc"/><path d="M619.226 211.873s24.824 102.794-14.79 184.925c-39.613 82.133-77.3 132.305-253.375 132.9-176.073.594-212.643-72.692-239.844-123.459C84.015 355.472 80.52 282.781 80.52 282.781l-3.202 85.387 50.4 94.783 41.991 38.426 59.611 25.942 159.5 10.035 70.311-10.035 74.995-18.88 71.5-59.683 28.32-102.202-2.902-113.352c-4.4-17.404-8.34-24.514-11.818-21.329z" fill="#666"/><path d="M49.307 158.036l16.34 10.71s-2.559 118.922-3.07 120.935c-.512 2.012 0 66.317 0 66.317l20.91 81.601-9.176 7.675-44.38-117.35 4.605-96.918 9.176-60.724z" fill="gray"/><path d="M625.143 216.21s25.2 105.5-12.918 187.029c-38.118 81.531-65.591 122.684-251.974 130.019-151.182 3.79-190.485-35.57-218.427-64.214-22.103-22.658-37.48-60.566-37.48-60.566s-68.23-126.25-61-86.424c9.476 52.184 24.6 126.96 83.369 173.895 35.998 28.75 108.602 46.47 108.602 46.47l113.714 8.999 101.747-6.034 160.934-62.048 68.821-150.457c-3.206-69.929-9.946-127.778-20.222-173.542l-22.447 19.378z" fill="url(#c)" transform="translate(-1.092 -1.197)"/><path d="M57.188 114.134s-2.966 31.725 4.128 50.351c-9.586 15.352-22.21 61.339-23.846 98.282-1.637 36.946 5.265 133.354 52.886 188.38-7.95 15.044-12.686 24.308-12.686 24.308S2.709 424.571 2.709 261.676c0-78.563 42.322-149.159 64.768-167.786-6.857 9.586-10.29 20.244-10.29 20.244z" fill="url(#d)" transform="translate(-1.092 -1.197)"/><path d="M7.004 291.757s2.154 78.93 31.654 129.001c29.5 50.07 56.116 82.091 125.973 110.723 69.858 28.632 170.223 26.478 186.12 26.982 15.895.504 207.192 9.069 296.977-101.516 51.441-66.333 64.818-144.898 54.098-223.461-10.718-78.565-50.572-124.467-50.572-124.467s5.542 14.247-1.009 53.598c9.713 16.905 25.47 73.022 22.448 117.916-3.024 44.894-11.263 105.789-45.397 153.464-21.942 30.647-39.35 52.086-87.266 74.534-47.915 22.446-121.299 33.67-187.63 32.662-66.331-1.009-130.142-6.185-183.737-30.647-53.597-24.463-82.09-61.66-102.52-91.3-20.43-29.64-4.673-14.613-29.638-39.213-24.965-24.601-29.5-88.276-29.5-88.276" fill="#121113"/><path d="M57.654 100.313S126.863-4.44 360.419 1.886c197.305.453 239.774 51.86 281.182 89.013.897 2.71-16.403 16.738-16.403 16.738l-28.4 10.664-81.347-63.858-144.507-31.502S234.953 39.039 229.301 38.343c-5.65-.696-94.737 49.074-94.737 49.074l-16.656 51.075L65.135 98.64l-7.481 1.672" fill="#c9cdd1"/><path d="M70.045 92.36s63.339-94.724 290.17-88.58c191.624.44 238.17 55.303 278.388 91.387-12.83 10.957-26.338 9.424-26.338 9.424l-22.476 12.252-79.005-62.019L370.438 24.23S238.363 39.866 232.874 39.19c-5.488-.677-92.011 47.66-92.011 47.66L94.96 115.376 67.24 98.674z" fill="#e6e6e6"/><path d="M70.045 102.883s76.458-85.579 280.576-85.579c204.12 0 278.7 69.102 286.528 79.54-8.869 11.404-24.889 23.577-24.889 23.577-52.292-32.86-101.395-58.815-147.304-77.863L341.504 24.32s-145.9 33.67-148.706 33.67c-2.805 0-78.562 53.312-78.562 53.312s-6.195 10.422-11.955 9.132c-15.693-12.714-32.236-17.55-32.236-17.55z" fill="gray"/><path d="M588.43 136.266S550.144 35.298 352.238 35.298c-197.905 0-232.161 99.838-232.161 99.838l-9.462-16.577 33.669-46.067 89.197-40.785 61.953-9.473 59.152-2.925 75.824 4.123 59.705 12.72 82.406 41.692 44.64 35.375 3.188 3.58-31.919 19.467" fill="#2a2e33"/><path d="M582.834 151.906s-19.103 12.735-58.033 27.195c-38.928 14.46-91.33 38.603-113.038 58.95-22.368 20.965-38.1 43.383-43.254 51.775-5.154 8.39-11.244 20.827-14.481 19.613-.404 7.178-2.023 50.047-2.023 50.047l2.428 1.618 20.422-35.288 67.744-73.71 30.836-32.86 105.054-50.154z" fill="#b3b3b3"/><path d="M520.925 181.672c-12.645 5.544-71.98 24.245-101.364 60.14-10.018 12.237-27.586 44.465-32.383 52.261-4.798 7.798-28.015 57.489-33.67 64.343-5.654 6.855 30.157-28.958 30.157-28.958s97.151-86.361 99.294-87.646c2.142-1.285 36.667-32.385 36.667-32.385s11.223-32.106 1.3-27.755" fill="#121113"/><path d="M644.879 104.13s-50.889 44.896-102.721 68.198c-51.832 23.305-116.483 45.596-155.188 130.746-29.431 51.932 45.956-46.61 45.956-46.61l39.667-28.446 92.011-41.039 47.034-30.157z" fill="#333"/><path d="M645.735 103.274s-36.209 36.46-87.214 65.2c-16.877 9.51-61.755 29.163-82.416 40.095-45.519 24.087-69.052 66.485-76.42 75.138-7.367 8.654-45.32 76.851-45.32 76.851l16.363-3.512 63.055-83.277 51.318-31.1L602.13 206l38.381-31.957s9.299 4.716 12.08-38.81c1.714-26.818-6.855-31.958-6.855-31.958z" fill="#e6e6e6"/><path d="M559.651 246.334l-77.508 24.902-43.49 17.887-55.063 41.036s-12.977 23.15-14.029 28.06c-1.052 4.91-9.118 31.565-9.118 31.565l-1.053 8.77-2.806 3.505-2.455-15.782 1.385-21.539 10.75-19.89 12.416-21.352 23.148-24.903 31.915-18.94 54.011-16.835 44.892-11.574z" fill="#333"/><path d="M615.975 225.717s-14.255 8.796-83.717 29.726c-69.463 20.93-105.557 40.063-135.89 78.261-16.38 20.628-25.784 40.952-28.817 50.962-3.032 10.01-8.823 18.483-9.706 19.717-.91 1.27-5.589 1.813-5.649-.917-.02-.94 4.01 2.55 5.375-7.488-.043-11.644 1.024-32.254 7.858-44.376 9.402-16.685 23.659-36.705 46.711-50.355 23.054-13.65 52.779-25.479 72.191-32.456 19.414-6.978 67.945-20.324 88.875-27.908 20.93-7.584 47.318-19.111 47.318-19.111z" fill="#999"/><path d="M356.09 363.128s1.126 31.983 0 35.36c-1.125 3.378-6.719-1.69-6.719-1.69l-22.728-53.02-31.98-33.107-48.552-30.33-21.32-8.408-34.232-10.661-14.038-4.221-2.815-8.128 71.562 17.416 53.582 28.04 27.511 25.825 20.477 28.042z" fill="#b3b3b3"/><path d="M126.106 151.906s19.103 12.735 58.032 27.195c38.93 14.46 91.332 38.603 113.04 58.95 22.367 20.965 37.013 43.787 42.166 52.178 5.154 8.392 12.331 20.424 15.569 19.21.403 7.178 2.022 50.047 2.022 50.047l-2.427 1.618-20.424-35.288-67.743-73.71-30.837-32.86-105.054-50.154z" fill="#ccc"/><path d="M347.54 349.078l-27.766-34.667-50.424-43.27-160.202-62.502-48.831-44.142s-11.409-37.424-4.263-51.319c-.256-4.36 7.877-27.037 10.909-19.976 8.27 8.411 18.228 20.9 52.179 43.066-2.928 6.89-.19 9.905 4.202 12.761 8.586 5.582 21.904 13.473 21.904 13.473l28.6 15.772 55.681 28.07 29.477 18.583 28.83 30.365 21.568 26.632 23.325 30.365 23.882 47.658z" fill="#e6e6e6"/><path d="M113.994 428.486c-12.357-8.674-27.877-15.86-43.018-25.563-12.173-7.801-21.755-40.096-26.519-66.957C27.49 240.298 61.01 169.972 61.01 169.972s.587-1.655-.06-2.246c-2.434-2.227-.687-6.234 3.139-3.692 42.8 28.44 53.769 28.687 87.294 44.323 48.011 22.391 98.343 22.182 151.738 75.997 25.417 25.617 50.675 76.054 53.605 75.425-.21 5.024-.97 28.743-.97 28.743s1.355-22.815-5.918-34.26c-29.502-46.414-72.72-65.723-72.72-65.723s-37.227-19.383-95.568-30.607c-25.151-4.839-60.975-13.765-92.2-31.843-2.584-1.495-3.543.328-4.443 1.678-1.699 2.55-8.426 66.846-1.451 108.199 6.473 38.386 15.349 59.156 30.538 92.52z" clip-rule="evenodd" fill="#1a1a1a"/><path d="M67.31 93.454s18.753 22.212 50.786 42.923c-13.396-4.969-19.392-5.744-31.498-14.975-8.128-6.199-19.289-27.948-19.289-27.948" fill="#3c444b"/><path d="M641.153 92.48s-14.88 16.022-24.85 23.486c-9.97 7.463-26.683 19.693-26.683 19.693l30.443-15.05 21.09-28.13" fill="#121113"/><path d="M91.618 113.417s26.838-37.176 71.73-58.958c44.892-21.78 74.836-26.438 102.56-30.52 26.625-3.92 80.576-4.938 84.817-5.013h.265c4.366.072 61.395 1.09 88.049 5.013 27.725 4.082 57.899 7.85 102.791 29.632 44.893 21.78 76.508 60.926 76.508 60.926s-11.263 2.646-18.139 8.28c-6.876 5.634-9.46 3.091-9.46 3.091s-.613-15.556-21.505-38.314c-20.895-22.757-53.186-36.2-94.974-51.148-40.396-14.453-118.14-14.935-123.27-14.95h-.265c-4.997.016-79.662.503-120.039 14.95-41.787 14.948-66.096 32.117-86.99 54.875-20.893 22.757-25.24 45.825-25.24 45.825s-6.831-8.695-13.707-14.33c-6.876-5.633-13.13-9.36-13.13-9.36z" fill="#1a1a1a"/><path d="M303.671 275.007a4323.5 4323.5 0 00-13.606-18.518c-20.845-28.223-45.664-44.053-71.209-56.775a527.445 527.445 0 00-12.477-5.985c12.019 4.934 23.705 10.372 42.386 21.027 20.473 11.677 38.881 36.595 50.523 53.837a678.449 678.449 0 004.383 6.414zM61.485 104.623c3.657 4.046 32.571 28.445 80.164 59.491 48.63 31.722 105.211 38.617 146.16 94.062 31.894 43.183 35.167 38.57 63.896 91.948-5.336-15.23-10.971-25.836-18.192-37.145-7.22-11.31-20.292-28.778-31.9-45.975-11.609-17.195-30.344-42.663-51.462-54.708-21.117-12.045-33.363-17.47-47.166-22.988-13.804-5.517-36.29-14.252-58.045-26.665-21.754-12.414-59.14-37.976-83.455-58.02" fill="#3c444b" fill-rule="evenodd"/><path d="M358.058 360.323c21.511-46.579 42.273-73.327 85.388-104.52 24.952-18.051 42.957-21.377 71.43-32.675 18.86-7.485 30.192-9.885 48.984-17.537 34.344-13.988 49.645-20.87 84.974-42.663 2.455 8.325-15.813 41.014-28.859 60.2-36.707 16.169-66.256 25.143-110.22 35.434-26.374 6.174-45.775 12.55-72.575 23.382-44.892 18.147-57.884 40.492-79.122 78.38z" fill="#1a1a1a"/><path d="M346.063 358.218c6.966 13.768 10.171 25.955 10.171 38.23 0 12.276-4.56 10.171-8.769-.701-4.209-10.873-10.521-34.021-36.124-62.431-25.602-28.41-53.66-48.752-81.717-58.924-28.058-10.17-56.818-16.484-69.444-20.343-12.625-3.857-30.662-9.78-30.662-9.78l31.715 8.028s71.897 16.134 112.932 40.334c41.034 24.2 60.886 43.828 71.898 65.587z" fill="#ccc"/><path d="M56.048 112.994c-1.566 1.903-41.671 51.433-54.431 147.485 0-74.352 38.044-143.292 61.15-166.26-3.234 4.825-6.743 15.603-6.72 18.775" fill="#c9cdd1"/><path d="M118.3 136.882s-10.137-13.346-22.822-23.294C82.794 103.64 73.13 99.582 73.13 99.582s7.023 8.627 21.311 19.896c14.29 11.27 23.86 17.404 23.86 17.404" fill="#121113"/><path d="M73.186 99.676s8.1 2.49 19.935 12.062c0 0 25.42-34.487 63.024-53.631C193.75 38.966 230.9 27.03 281.893 21.987c0 0-62.92 2.131-126.832 34.632-36.235 18.427-62.226 52.372-62.226 52.372-6.334-4.67-12.884-7.774-19.649-9.315" fill="#c9cdd1"/><path d="M649.32 161.21s6.919 9.026 15.505 43.706c6.526 26.36 7.944 52.262 7.944 52.262s-5.54-53.902-23.935-94.207z" fill="#e6e6e6"/><path d="M351.006 17.323c4.623-.114 61.58.805 88.31 4.74 13.92 2.05 28.453 4.023 45.143 8.215 16.725 4.201 35.611 10.626 58.199 21.586 22.673 11.002 41.955 26.364 55.548 38.945a269.288 269.288 0 0116.38 16.557 216.13 216.13 0 015.097 5.84l-1.345 1.29s-31.615-39.144-76.508-60.925c-44.892-21.782-75.066-25.55-102.791-29.632-26.654-3.923-88.033-6.616-88.033-6.616z" fill="#f2f2f2"/><path d="M185.143 491.832c88.655 42.116 266.651 39.615 342.878 0-80.143 48.317-255.202 50.819-342.878 0z" clip-rule="evenodd" fill="#e6e6e6"/><path d="M614.831 397.41h30.735s-33.63 87.596-127.75 118.08c-39.386 12.76-98.38 13.456-98.38 13.456 107.635-6.312 162.983-40.725 195.395-131.537z" fill="#ccc"/><path d="M372.5 331.714s28.135-59.106 94.805-92.522c17.556-8.8 46.944-15.854 46.944-15.854l-17.105 6.429c-19.144 6.885-34.328 12.022-53.698 26.036-33.265 24.066-53.223 45.488-70.487 75.41l-.459.501" fill="#fff"/><path d="M362.586 357.782s12.963-57.579 105.698-85.151c-59.114 22.35-85.436 41.875-105.698 85.15z" clip-rule="evenodd" fill="#b3b3b3"/><path d="M352.98 400.3c-.695-1.12-1.624-2.908-2.685-5.648-2.126-5.494-4.791-14.084-10.151-24.893-5.418-10.926-13.549-24.048-26.549-38.475-10.8-11.983-22.054-22.57-33.585-31.592 35.799 22.032 53.375 40.194 63.345 59.896 6.801 13.44 9.845 25.159 9.845 36.86 0 1.631-.087 2.9-.22 3.851z" fill="#e6e6e6"/><path d="M588.533 136.726l2.151 6.4s10.702-5.905 29.957-20.745c19.255-14.842 25.213-19.257 25.213-19.257s5.52 4.25 24.994 36.03c0 0-6.07-18.706-28.139-46.4l-22.399 27.64z" fill="#ececec"/><path d="M285.664 255.332c-31.011-33.366-52.88-40.939-92.589-55.151-38.132-13.648-53.852-35.094-56.835-39.62a921.357 921.357 0 005.409 3.553c47.786 31.172 103.25 38.37 144.015 91.218z" fill="#666"/><path d="M466.25 719.797h35.969s15.719-.107 15.719-24.792c0-25.167-15.719-25.204-15.719-25.204H466.25zM241.875 702.97c-3.826 0-6.929 3.544-6.929 7.917 0 4.373 3.103 7.917 6.93 7.917l41.942-.008v-15.82l-41.943-.007zm341.349 0c-3.826 0-6.929 3.545-6.929 7.918s3.103 7.917 6.929 7.917l41.942-.008v-15.82l-41.942-.006zm-14.646-20.444h57.197c.01-5.573-.376-14.397-13.441-14.403-13.495-.007-58.668 0-58.668 0v-25.129s43.614.013 71.5.006c17.413-.004 31.174 7.096 31.177 27.9l-.014 75.305h-87.56l.999.065c-11.595 0-21.345-10.208-24.081-24.008-7.797 23.94-26.648 23.93-41.23 23.894l-70.488.001V665.31l-99.184 80.894H227.422l.997.065c-9.63 0-17.989-7.042-22.111-17.335l-.017 17.27h-30.636v-66.432s-.071-8.848-9.497-8.869H143.51v75.3h-30.307v-75.3h-31.78v75.3H50.007l.05-103.21 127.882-.002c14.114 0 28.401 9.267 28.401 27.913l-.011 28.855c4.127-10.258 12.461-17.27 22.071-17.27l-1.171.036h57.199c.007-5.573-.378-14.396-13.443-14.403-13.495-.006-58.666 0-58.666 0v-25.128s43.612.013 71.499.006c17.412-.004 31.175 7.096 31.176 27.9l-.01 51.792 100.155-79.698h18.83l70.73.001c18.612 0 44.606 0 44.606 51.452l-.011 1.852c4.479-8.341 11.969-13.809 20.455-13.809l-1.171.037zM325.97 642.994h71.489l-31.656 27.91H325.95zm98.714 103.13h-71.489l31.658-27.91h39.851l-.02 27.91" fill="#0080c5"/><path d="M187.849 259.152s6.407 1.4 8.456 1.88c23.46 5.35 42.754 11.765 56.599 17.055 11.839 5.365 25.114 12.392 39.526 21.597 59.125 37.765 59.449 69.27 59.449 69.27s-.841-21.687-36.921-51.833c-36.359-30.38-98.15-49.637-116.423-54.873-3.35-.96-10.686-3.096-10.686-3.096z" clip-rule="evenodd" fill="gray"/></svg>