<svg xmlns="http://www.w3.org/2000/svg" height="800" width="1200" viewBox="-30 -42.8 260 256.8"><linearGradient gradientTransform="translate(-202.6 -489.89)" y2="631.789" x2="302.6" y1="492.388" x1="302.6" gradientUnits="userSpaceOnUse" id="a"><stop offset=".194" stop-color="#fff"/><stop offset=".208" stop-color="#f8f8f8"/><stop offset=".366" stop-color="#aeaeae"/><stop offset=".513" stop-color="#707070"/><stop offset=".647" stop-color="#404040"/><stop offset=".764" stop-color="#1d1d1d"/><stop offset=".86" stop-color="#080808"/><stop offset=".922"/></linearGradient><path d="M193.1 64.9c-1.8-.5-3.9-.8-8.2-1.3-18-.8-62.3-2.5-84.9-2.5-22.6 0-66.9 1.7-84.9 2.5-4.3.5-6.4.8-8.2 1.3C1.2 66.2 0 68.2 0 72.3V100c0 4 4.3 6.8 7.3 7.3 3 .6 4.9.8 8 1.1 16 1 53.3 3.1 84.7 3.1 31.4 0 68.6-2.1 84.7-3.1 3.1-.3 5-.5 8-1.1 3-.5 7.3-3.3 7.3-7.3V72.3c0-4.1-1.2-6.1-6.9-7.4z" fill="url(#a)"/><radialGradient gradientUnits="userSpaceOnUse" gradientTransform="translate(-202.6 -489.89)" r="139.462" cy="455.433" cx="246.456" id="b"><stop offset=".202" stop-color="#fff"/><stop offset=".382" stop-color="#fdfdfd"/><stop offset=".487" stop-color="#f4f4f4"/><stop offset=".573" stop-color="#e6e6e6"/><stop offset=".648" stop-color="#d2d2d2"/><stop offset=".689" stop-color="#c4c4c4"/><stop offset="1" stop-color="#333"/></radialGradient><path d="M28 66c8.8-30.7 37.8-53.2 72.3-53.2 34.3 0 63.3 22.4 72.2 53 0 .1 0 .2.1.3 5.1-.6 9.7-1.5 12.9-2.3-.1-.2-.1-.2-.1-.4C175.3 26.8 141 0 100.3 0 59.5 0 25.1 27 15.1 63.6c4.5 1.2 7.8 1.7 12.9 2.4z" fill="url(#b)"/><radialGradient gradientUnits="userSpaceOnUse" gradientTransform="translate(-202.6 -489.89)" r="290.451" cy="678.815" cx="583.968" id="c"><stop offset=".202" stop-color="#fff"/><stop offset=".368" stop-color="#e4e4e4"/><stop offset=".594" stop-color="#c4c4c4"/><stop offset="1" stop-color="#333"/></radialGradient><path d="M172.3 106.2c-.1.3-.2.6-.2.7-9.4 29.9-38 51.6-71.8 51.6-34.1 0-62.8-22-72-52.3-5.6 1-7.5 1.4-13 2.1 10.3 36.3 44.4 62.9 85 62.9s74.8-26.7 85-63c-4.9-.5-7.7-1-13-2z" fill="url(#c)"/><radialGradient gradientUnits="userSpaceOnUse" gradientTransform="translate(-202.6 -489.89)" r="89.169" cy="614.719" cx="279.955" id="d"><stop offset=".202" stop-color="#fff"/><stop offset=".368" stop-color="#e4e4e4"/><stop offset=".594" stop-color="#c4c4c4"/><stop offset="1" stop-color="#333"/></radialGradient><path d="M29.9 65.9c2.1-.9 4.2-2.3 7.4-3.2 9.6-24.8 34.2-42.5 63.1-42.5 28.8 0 53.4 17.6 63 42.3 0 .1.1.2.1.2 1.7.6 6.5 2.5 8 3.2h1.1c0-.1-.1-.2-.1-.3-8.9-30.6-37.9-53-72.2-53-34.4 0-63.4 22.5-72.3 53.2.6.2 1.5.1 1.9.1z" fill="url(#d)"/><path d="M99.8 14.8c32.2 0 60.8 19.2 71.6 50.9 0 .1.1.2.1.3h1.1c0-.1-.1-.2-.1-.3-8.9-30.6-37.9-53-72.2-53-34.4 0-63.4 22.5-72.3 53.2.7 0 1 0 1.8-.1 9.7-30 38-51 70-51z" fill="#FFF"/><radialGradient gradientUnits="userSpaceOnUse" gradientTransform="translate(-202.6 -489.89)" r="169.193" cy="705.898" cx="351.912" id="e"><stop offset=".202" stop-color="#fff"/><stop offset=".368" stop-color="#e4e4e4"/><stop offset=".594" stop-color="#c4c4c4"/><stop offset="1" stop-color="#333"/></radialGradient><path d="M170.5 106.3c-2.3 1.3-5.2 2.5-7.5 3.3 0 .1-.2.4-.2.5-10 24-34.2 41-62.5 41-28.5 0-52.8-17.2-62.7-41.4-2.7-.7-6.6-2.5-8.1-3.3-.6 0-.9 0-1.2-.1 9.2 30.2 37.9 52.3 72 52.3 33.9 0 62.6-21.8 71.8-51.8 0-.1.1-.4.1-.4-.4-.2-1.3-.1-1.7-.1z" fill="url(#e)"/><radialGradient gradientUnits="userSpaceOnUse" gradientTransform="translate(-202.6 -489.89)" r="134.452" cy="507.502" cx="301.26" id="f"><stop offset=".202" stop-color="#fff"/><stop offset=".397" stop-color="#fdfdfd"/><stop offset=".51" stop-color="#f4f4f4"/><stop offset=".603" stop-color="#e6e6e6"/><stop offset=".684" stop-color="#d2d2d2"/><stop offset=".728" stop-color="#c4c4c4"/><stop offset="1" stop-color="#4d4d4d"/></radialGradient><path d="M191.5 66.9c-4.8-.6-8-.5-19.6-.9-.5 0-1.1 0-1.6-.1-21-.7-52.5-1.7-70.3-1.7-17.8 0-49.4 1-70.3 1.7-.5 0-1.1 0-1.6.1-11.6.4-14.8.3-19.6.9-4.8.6-8.5 2.6-8.5 6.2v25.7c0 3.5 4.5 6.4 8.5 6.4 0 0 50.7 3.1 91.5 3.2 40.8 0 91.5-3.2 91.5-3.2 4 0 8.5-2.9 8.5-6.4V73.1c0-3.6-3.7-5.6-8.5-6.2z" fill="url(#f)"/><path d="M170.5 106.3c-10 29.5-38 50.1-69.6 50.1-32 0-60.3-18.9-71.3-50.1-.4 0-.8 0-1.2-.1 9.2 30.2 37.9 52.3 72 52.3s62.8-22.1 72-52.3c-.7 0-1.3.1-1.9.1z" fill="#FFF"/><path d="M170.5 106.3c-2.4 1.3-5.3 2.5-7.6 3.3 0 .1-.2.4-.2.5-3.2 7.6-7.7 14.5-13.4 20.4 9-6.6 16.2-14.8 21.2-24.2z" fill="#8C8C8C"/><path d="M53.2 132.3c-6.7-6.4-12-14.1-15.5-22.7-2.7-.7-6.6-2.5-8.1-3.3 1.6 3.4 3.5 6.5 5.6 9.5 4.4 5.7 9.8 10.9 15.8 15.2.7.4 1.5.9 2.2 1.3z" fill="#4D4D4D"/><path d="M28.3 106.2c-5.6 1-7.5 1.4-13 2.1.4 1.6.9 3.1 1.5 4.7z" fill="#252525"/><radialGradient gradientUnits="userSpaceOnUse" gradientTransform="translate(-202.6 -489.89)" r="90.56" cy="520.968" cx="304.375" id="g"><stop offset=".111" stop-color="#4d4d4d"/><stop offset=".248" stop-color="#494949"/><stop offset=".355" stop-color="#404040"/><stop offset=".451" stop-color="#2f2f2f"/><stop offset=".541" stop-color="#181818"/><stop offset=".611"/></radialGradient><path d="M140.6 78.2c-1.7-3.7-1.1-3.3-4.7-3.4-.3-.1-1.1-.1-2.2-.1s-1.3 0-2.2.1c-3.4 0-2.8-.2-4 2.3 0 0-5.9 13.2-8.4 18.7l-.1.2c-.5 1-.2 1 .6 1h5.3c.4 0 .6-.2.7-.4 0 0 .8-1.7 1.8-4h12.9c1 2.3 1.7 3.9 1.7 4 .1.3.4.4.7.4h5.5c.8 0 1 .1.7-.6-1-2.4-7.4-16.1-8.3-18.2zm-11.2 9.7c1.7-3.9 3.3-7.7 3.3-7.8.1-.2.3-.3.6-.3.1-.1.4-.1.7-.1.2 0 .5 0 .6.1.2 0 .4.1.5.4.4 1.1 1.9 4.4 3.2 7.7zM58.7 74.5c.5 0 .6.2.6.6v21c0 .5-.1.7-.7.7h-5.1c-.6 0-.7-.1-.7-.7v-21c0-.4.1-.6.5-.6zm-10.9.2c.6 0 .7.2.7.7v20.9c0 .6-.1.7-.7.7h-6c-3.5 0-3.8 0-5-2-2.4-3.8-9.8-15.1-9.8-15.1v16.4c0 .6-.1.7-.7.7h-4.4c-.6 0-.7-.1-.7-.7V75.4c0-.5.1-.7.7-.7H27c3.8 0 4.3-.1 5.7 1.9 1.1 1.8 10 15.5 10 15.5V75.4c0-.5.1-.7.7-.7zm131 0c.6 0 .7.2.7.7v20.9c0 .6-.1.7-.7.7h-6c-3.5 0-3.8 0-5-2-2.5-3.8-9.8-15.1-9.8-15.1v16.4c0 .6-.1.7-.7.7h-4.4c-.6 0-.7-.1-.7-.7V75.4c0-.5.1-.7.7-.7h5.1c3.8 0 4.3-.1 5.7 1.9 1.2 1.8 10 15.5 10 15.5V75.4c0-.5.1-.7.7-.7zm-97.6 8.5c3.9.4 6.8 1.1 7.6 4.8 0 .3.1 1.3.1 2.4 0 .7 0 1.6-.2 2.4-.7 3.5-3.3 4.2-7.5 4.2H64.7c-.6 0-.7-.1-.7-.7v-3.5c0-.6.1-.7.7-.7h16.7c.7 0 .9-.2 1-.7v-1.5c-.1-.4-.2-1-1.1-1.1-1.9-.1-7.4-.6-11.1-1-4.8-.5-6-2.5-6.2-4.3-.1-.6-.1-1.4-.1-2.1 0-.6 0-1.5.1-2.2.7-3.1 3-4.6 7.2-4.6h16c.6 0 .8.1.8.6v3.6c0 .5-.2.7-.8.6H71.5c-.7 0-1 .3-1.1 1v.9c0 .5.3.9 1 1 1.8.3 7.6.7 9.8.9zm28.3 0c3.9.4 6.8 1.1 7.6 4.8 0 .3.1 1.3.1 2.4 0 .7 0 1.6-.2 2.4-.7 3.5-3.3 4.2-7.5 4.2H93.1c-.6 0-.7-.1-.7-.7v-3.5c0-.6.1-.7.7-.7h16.7c.7 0 .9-.2 1-.7v-1.5c-.1-.4-.3-1-1.1-1.1-1.9-.1-7.4-.6-11.1-1-4.8-.5-5.9-2.5-6.2-4.3-.1-.6-.1-1.4-.1-2.1 0-.6 0-1.5.1-2.2.7-3.1 3-4.6 7.2-4.6h16c.6 0 .8.1.8.6v3.6c0 .5-.2.7-.8.6H99.9c-.7 0-1 .3-1.1 1v.9c0 .5.2.9 1 1 1.8.3 7.6.7 9.7.9z" fill="url(#g)"/></svg>