<svg xmlns="http://www.w3.org/2000/svg" height="800" width="1200" version="1.0" viewBox="-30.09915 -35.591 260.8593 213.546"><path d="M92.946 43.214l6.447-38.62c-23.231.427-41.991 19.39-41.991 42.734 0 7.264 1.992 14.262 5.293 20.672zm7.12 12.393L63.47 69.335c7.607 12.767 21.81 20.673 36.644 20.673 14.909 0 28.926-7.906 36.623-20.673zm7.174-12.393L137.533 68c3.397-6.357 5.347-13.408 5.347-20.672 0-23.557-18.68-42.04-41.986-42.788zm40.196 4.114c0 26.014-21.318 47.327-47.322 47.327-25.982 0-47.322-21.313-47.322-47.327C52.792 21.313 74.111 0 100.114 0c26.02 0 47.322 21.313 47.322 47.328" fill="#fff" fill-rule="evenodd"/><path d="M4.904 120.188l-.844 18.91c-.08 1.816 1.25 2.19 2.895 2.297v.64c-1.165-.053-2.33-.16-3.499-.16-1.165 0-2.292.107-3.456.16v-.64c1.65-.107 2.815-.48 2.895-2.297l.887-17.895c.117-1.923-1.25-2.19-2.895-2.243v-.695c1.004 0 1.97.054 2.975.054.881 0 1.725-.054 2.57-.16l6.677 18.856 6.794-18.857.764.107c.604 0 1.25.054 1.891.054.967 0 1.934-.054 2.895-.054v.695c-1.645.053-2.932.374-2.895 2.243l.406 17.895c.08 1.816 1.202 2.19 2.933 2.297v.64l-1.485-.106c-.887-.053-1.731-.107-2.618-.107-.881 0-1.768.054-2.655.107l-1.447.107v-.641c1.693-.107 2.938-.48 2.895-2.297l-.278-18.91-7.564 21.1h-.438l-7.403-21.1m40.297 7.425v12.607c0 1.175-1.65 1.228-2.494 1.282v.534c1.207-.054 2.409-.16 3.616-.16 1.207 0 2.415.106 3.622.16v-.534c-1.368-.107-2.532-.267-2.532-1.87v-7.104c0-2.03.32-6.09 3.055-6.304.481-.053 1.208.214 1.245.802 0 .32-.16.587-.16.908 0 .694.64 1.175 1.287 1.228.967 0 1.405-.854 1.405-1.709 0-1.496-1.367-2.617-2.853-2.617-2.013 0-3.579 1.388-4.145 3.258 0-1.175-.117-2.35-.24-3.472-1.405.374-2.853.748-4.3.801v.534c1.447.054 2.494 0 2.494 1.656m20.107-3.098l-.93 1.763c-.924-.855-1.966-1.442-3.333-1.442-4.626 0-6.8 4.593-6.8 8.707 0 4.06 1.89 8.813 6.634 8.813 3.382 0 5.07-2.83 5.39-5.822h-1.367c-.401 2.243-1.208 4.7-3.937 4.7-3.825 0-4.226-4.86-4.226-7.691 0-2.671.647-7.853 4.263-7.853 2.532 0 3.74 2.19 4.183 4.327h.683v-5.502h-.56m14.914 11.965h1.41c-.524 3.58-2.612 5.876-6.314 5.876-4.744 0-6.634-4.433-6.634-8.546 0-4.113 1.81-8.974 6.634-8.974 4.626 0 6.271 4.166 6.234 8.172h-10.7c.086 3.312.524 8.227 4.867 8.227 2.777 0 4.145-2.297 4.503-4.754zm-.844-4.7v-.48c-.24-2.512-1.042-5.556-4.14-5.556-2.938 0-4.14 3.579-4.263 6.036h8.403m19.588 9.188v.48c-1.448.214-2.815.374-4.226.802-.203-1.015-.363-2.03-.4-3.099-.844 1.87-2.452 3.099-4.546 3.099-4.503 0-6.191-4.968-6.191-8.707 0-3.74 1.73-8.6 6.191-8.6 2.174 0 3.419 1.335 4.423 3.151v-6.89c0-1.657-.962-1.87-2.49-1.87v-.481l.439-.107c1.447-.16 2.858-.32 4.262-.748v20.512c0 1.87.647 2.458 2.538 2.458zm-4.749-7.319c0-2.83-.48-7.745-4.263-7.745-3.616 0-3.98 4.914-3.98 7.532 0 2.67.321 7.852 4.103 7.852 3.82 0 4.14-4.86 4.14-7.639m18.14 2.831h1.405c-.32 3.58-2.735 5.876-6.314 5.876-4.706 0-6.677-4.433-6.677-8.546 0-4.113 1.854-8.974 6.677-8.974 4.664 0 6.271 4.166 6.271 8.172h-10.694c-.042 3.312.561 8.227 4.824 8.227 2.735 0 4.225-2.297 4.508-4.754zm-.806-4.7c-.24-2.618-.887-6.036-4.145-6.036-2.933 0-3.937 3.312-4.258 5.715l-.042.32h8.445m5.106 10.577l.802-1.495c1.17.961 2.697 1.389 4.182 1.389 2.858 0 5.593-1.87 5.593-4.968 0-2.35-1.608-3.526-3.66-4.327l-1.607-.641c-1.448-.534-3.782-1.335-3.782-3.258s1.528-3.259 3.456-3.259c2.495 0 3.5 2.03 3.745 4.22h.683v-5.395h-.566l-.48 1.335c-1.048-.64-2.212-1.015-3.462-1.015-2.692 0-5.187 1.763-5.187 4.594 0 5.663 9.012 4.007 9.012 8.28 0 2.083-1.854 3.472-3.825 3.472-2.932 0-4.22-2.19-4.823-4.754l-.727.053.043 5.77h.603m12.105-9.509h6.431v-1.122h-6.431zm37.354 3.632h1.41c-.32 3.473-2.777 6.037-6.35 5.876-4.67-.267-6.64-4.273-6.64-8.546 0-4.113 1.853-8.974 6.64-8.974 4.662 0 6.308 4.166 6.308 8.226h-10.737c-.038 3.258.604 8.173 4.829 8.173 2.815 0 4.14-2.297 4.54-4.754zm-.844-4.7c-.037-2.618-.961-6.036-4.14-6.036-2.895 0-3.942 3.365-4.262 5.715l-.043.32h8.445m6.357-4.112v12.019c0 1.602-1.17 1.709-2.575 1.816v.587c1.245-.107 2.452-.213 3.66-.213 1.206 0 2.414.106 3.658.213v-.587c-1.367-.107-2.574-.267-2.574-1.816v-8.494c0-2.51 1.287-4.754 4.145-4.754 2.735 0 3.253 2.404 3.253 4.647v9.135c0 1.228-1.688 1.228-2.57 1.282v.587c1.202-.107 2.41-.213 3.66-.213 1.244 0 2.451.106 3.696.213v-.587c-1.405-.107-2.57-.214-2.57-1.816v-8.707c0-3.152-1.57-6.037-5.149-6.037-2.008 0-3.541 1.069-4.626 2.725v-.428a27.787 27.787 0 00-.24-2.724c-1.367.534-2.815.855-4.263 1.068v.535c1.41 0 2.495-.054 2.495 1.549m27.868 14.315l.844-4.807h-.567c-.8 2.243-1.768 4.006-4.343 4.006h-4.78l10.01-15.971h-11.42l-.764 4.38h.603c.764-2.03 1.57-3.526 3.942-3.526h4.584l-9.973 15.918h11.864M39.529 136.48h1.41c-.326 3.58-2.735 5.876-6.314 5.876-4.749 0-6.634-4.38-6.634-8.546 0-4.113 1.805-8.974 6.634-8.974 4.663 0 6.271 4.166 6.271 8.172H30.202c-.043 3.312.56 8.227 4.823 8.227 2.693 0 4.3-2.297 4.504-4.754zm-.802-4.7c-.165-2.618-.93-6.036-4.182-6.036-3.061 0-3.942 3.579-4.263 6.036h8.445m113.463 3.419c0 4.273-2.98 6.783-8.146 6.783h-8.675v-.694c2.383-.16 2.906-.534 2.906-2.35V121.31c0-1.763-.518-2.19-2.906-2.297v-.694h8.926c4.311 0 6.747 2.083 6.747 5.715 0 2.511-1.186 4.22-3.766 5.342 3.034.534 4.914 2.778 4.914 5.823zm-8.926-6.09c3.617 0 5.22-1.55 5.22-4.968 0-3.365-1.4-4.86-4.536-4.86h-3.322v9.828zm-2.638 9.882c0 1.656.374 1.977 2.414 1.977h1.309c3.29 0 5.277-2.137 5.277-5.61 0-3.578-1.709-5.288-5.293-5.288h-3.707v8.921m6.81-91.663c0 26.014-21.318 47.327-47.322 47.327-25.982 0-47.322-21.313-47.322-47.327C52.792 21.313 74.111 0 100.114 0c26.02 0 47.322 21.313 47.322 47.328zm-57.808 5.288l-.058.107.15-.054 9.064-5.341-1.608-.909zm41.383 12.179h.17l-.096-.16-27.499-18.483-2.088 1.176zM99.83 14.209l-.075-.107-.08.107-1.912 30.928 1.704 1.015zm28.674-.267l.06.16c2.237 2.083 4.358 4.327 6.276 6.73 5.972 7.48 9.086 16.934 9.086 26.496 0 7.531-2.014 14.796-5.614 21.366l.491.908-1.025.054c-7.869 13.14-22.323 21.42-37.665 21.42-15.363 0-29.737-8.226-37.61-21.42l-.968-.054.401-.908c-2.297-4.22-3.873-8.707-4.802-13.407l-.09-.107-.06.16c.61 4.968 2.18 9.829 4.551 14.262 7.74 14.53 22.174 23.077 38.6 23.077 24.935 0 45.27-20.46 45.27-45.351 0-12.767-6.58-25.64-16.746-33.386zM99.393 4.594c-23.231.427-41.991 19.39-41.991 42.734 0 7.264 1.992 14.262 5.293 20.672l29.642-24.305 2.43 1.389-32.376 23.77-.134.321h.364L99.43 48.45l-.075 7.425-35.885 13.46c7.607 12.767 21.81 20.673 36.644 20.673 14.909 0 28.926-7.906 36.623-20.673l-35.864-13.46-.096-7.426 36.91 20.726h.321l-.15-.267-32.397-23.824 2.41-1.389L137.532 68c3.397-6.357 5.347-13.408 5.347-20.672 0-23.557-18.68-42.04-41.986-42.788l6.218 37.873-6.351 3.74-.46-42.307-.187-.214-.17.214-4.477 39.903-2.388-1.336zM69.902 82.102c-9.199-9.241-14.493-21.634-14.493-34.774 0-24.626 20.085-44.71 44.705-44.71 21.565 0 39.94 15.597 45.33 36.056l.112.053.059-.106c-4.306-21.634-23.29-37.553-45.5-37.553-25.433 0-46.276 20.833-46.276 46.26 0 13.407 5.956 26.067 15.966 34.934h.134l-.037-.16" fill="#231f20"/></svg>