<?xml version="1.0" encoding="UTF-8" standalone="no"?>
<svg
   version="1.1"
   width="512"
   height="512"
   x="0"
   y="0"
   viewBox="0 0 480 480"
   style="enable-background:new 0 0 512 512"
   xml:space="preserve"
   class=""
   id="svg66"
   sodipodi:docname="car_buyer.svg"
   inkscape:version="1.1 (c68e22c387, 2021-05-23)"
   xmlns:inkscape="http://www.inkscape.org/namespaces/inkscape"
   xmlns:sodipodi="http://sodipodi.sourceforge.net/DTD/sodipodi-0.dtd"
   xmlns="http://www.w3.org/2000/svg"
   xmlns:svg="http://www.w3.org/2000/svg"><defs
     id="defs70" /><sodipodi:namedview
     id="namedview68"
     pagecolor="#ffffff"
     bordercolor="#666666"
     borderopacity="1.0"
     inkscape:pageshadow="2"
     inkscape:pageopacity="0.0"
     inkscape:pagecheckerboard="0"
     showgrid="false"
     inkscape:zoom="1.5859375"
     inkscape:cx="255.68473"
     inkscape:cy="242.44335"
     inkscape:window-width="1920"
     inkscape:window-height="1001"
     inkscape:window-x="-9"
     inkscape:window-y="-9"
     inkscape:window-maximized="1"
     inkscape:current-layer="g64" /><g
     id="g64">
<path
   style="fill:#755a48;fill-opacity:1"
   d="M64,287.947l-56-8v-104l72-16l55.864-92.616l187.8-3.384l49.008,92.136L472,175.947v112h-72H64z"
   fill="#76ba3b"
   data-original="#ed1c24"
   class=""
   id="path2" />
<path
   style=""
   d="M294.504,262.195l-46.504,10l25.568,95.296l45.84-13.432L294.504,262.195z"
   fill="#603813"
   data-original="#603813"
   class=""
   id="path4" />
<path
   style=""
   d="M343.256,442.035l-23.848-88L273.6,367.491l23.2,86.4c3.123,12.882,16.098,20.792,28.979,17.669  c12.882-3.123,20.792-16.098,17.669-28.979c-0.041-0.169-0.084-0.338-0.129-0.506L343.256,442.035z"
   fill="#42210b"
   data-original="#42210b"
   id="path6" />
<circle
   style=""
   cx="240"
   cy="143.947"
   r="136"
   fill="#29485a"
   data-original="#29485a"
   class=""
   id="circle8" />
<circle
   style=""
   cx="240"
   cy="143.947"
   r="112"
   fill="#29abe2"
   data-original="#29abe2"
   class=""
   id="circle10" />
<path
   style=""
   d="M106,255.947H8v24l56,8h40"
   fill="#333333"
   data-original="#333333"
   id="path12" />
<path
   style=""
   d="M472,191.947h-32v40h32"
   fill="#e6e6e6"
   data-original="#e6e6e6"
   class=""
   id="path14" />
<path
   style=""
   d="M8,191.947h40v24H8"
   fill="#871b20"
   data-original="#871b20"
   class=""
   id="path16" />
<circle
   cx="104"
   cy="295.947"
   r="40"
   fill="#000000"
   data-original="#000000"
   style=""
   class=""
   id="circle18" />
<path
   style=""
   d="M368,255.947v32h104v-32H368z"
   fill="#333333"
   data-original="#333333"
   id="path20" />
<circle
   cx="368"
   cy="295.947"
   r="40"
   fill="#000000"
   data-original="#000000"
   style=""
   class=""
   id="circle22" />
<path
   d="M473.6,168.107l-89.912-17.984c0.088-2.064,0.312-4.088,0.312-6.176C383.941,64.418,319.422-0.006,239.893,0.053  c-67.985,0.05-126.672,47.641-140.765,114.149l-0.648-0.392l-23.56,39.072L6.264,168.131c-3.662,0.814-6.267,4.064-6.264,7.816v104  c-0.001,3.98,2.924,7.355,6.864,7.92l49.192,7.032c0,0.352-0.056,0.696-0.056,1.048c0.154,26.509,21.768,47.875,48.277,47.721  c23.211-0.134,43-16.858,47.003-39.721h96.664l41.04,151.864c3.619,14.181,16.381,24.112,31.016,24.136  c17.673-0.009,31.993-14.343,31.984-32.016c-0.001-2.694-0.343-5.376-1.016-7.984l-36.736-136h6.488  c4.418,26.112,29.168,43.698,55.28,39.28s43.698-29.168,39.28-55.28H472c4.418,0,8-3.582,8-8v-104  C480.001,172.145,477.325,168.867,473.6,168.107z M16,199.947h24v8H16V199.947z M59.088,279.147L16,273.011v-9.064h52.32  C64.324,268.395,61.193,273.55,59.088,279.147L59.088,279.147z M104,327.947c-17.673,0-32-14.327-32-32s14.327-32,32-32  s32,14.327,32,32S121.673,327.947,104,327.947z M240,287.947h-88.72c-4.219-25.97-28.692-43.603-54.663-39.384  c-0.206,0.033-0.412,0.068-0.617,0.104v-0.72H16v-24h32c4.418,0,8-3.582,8-8v-24c0-4.418-3.582-8-8-8H16v-1.6l65.736-14.6  c2.136-0.476,3.983-1.806,5.112-3.68l9.384-15.552C98.733,226.148,162.327,287.823,240,287.947c1.208,0,2.4-0.152,3.576-0.184  l0.048,0.184H240z M240,271.947c-70.692,0-128-57.308-128-128s57.308-128,128-128s128,57.308,128,128  C367.916,214.604,310.658,271.863,240,271.947z M259.784,286.427c10.599-1.467,21-4.119,31.008-7.904l18.52,68.552l-30.4,10.136  L259.784,286.427z M335.504,444.027c2.143,8.574-3.07,17.261-11.644,19.404c-8.574,2.143-17.261-3.07-19.404-11.644l0,0  l-21.368-79.08l30.4-10.136L335.504,444.027z M368,327.947c-17.673,0-32-14.327-32-32s14.327-32,32-32s32,14.327,32,32  S385.673,327.947,368,327.947z M464,271.947h-54.496c-1.662-2.859-3.614-5.54-5.824-8H464V271.947z M464,223.947h-16v-24h16V223.947  z M464,183.947h-24c-4.418,0-8,3.582-8,8v40c0,4.418,3.582,8,8,8h24v8h-88v0.72c-25.913-4.56-50.616,12.75-55.176,38.663  c-0.036,0.206-0.071,0.411-0.104,0.617h-10.808l-4.312-16c40.939-21.049,69.367-60.38,76.512-105.856L464,182.499L464,183.947z"
   fill="#000000"
   data-original="#000000"
   style=""
   class=""
   id="path24" />
<path
   d="M240,23.947c-66.274,0-120,53.726-120,120s53.726,120,120,120s120-53.726,120-120C359.925,77.704,306.243,24.022,240,23.947  z M240,247.947c-57.438,0-104-46.562-104-104s46.562-104,104-104s104,46.562,104,104C343.934,201.357,297.41,247.881,240,247.947z"
   fill="#000000"
   data-original="#000000"
   style=""
   class=""
   id="path26" />
<path
   d="M327.352,130.963c-6.253-33.357-28.882-61.324-60.2-74.4l-6.304,14.704c26.316,10.907,45.378,34.323,50.72,62.304  c4.003,25.769-5.824,51.747-25.88,68.416l10.752,11.856C320.596,193.57,332.333,162.102,327.352,130.963L327.352,130.963z"
   fill="#000000"
   data-original="#000000"
   style=""
   class=""
   id="path28" />
<circle
   cx="104"
   cy="295.947"
   r="16"
   fill="#000000"
   data-original="#000000"
   style=""
   class=""
   id="circle30" />
<circle
   cx="368"
   cy="295.947"
   r="16"
   fill="#000000"
   data-original="#000000"
   style=""
   class=""
   id="circle32" />
<g
   id="g34">
</g>
<g
   id="g36">
</g>
<g
   id="g38">
</g>
<g
   id="g40">
</g>
<g
   id="g42">
</g>
<g
   id="g44">
</g>
<g
   id="g46">
</g>
<g
   id="g48">
</g>
<g
   id="g50">
</g>
<g
   id="g52">
</g>
<g
   id="g54">
</g>
<g
   id="g56">
</g>
<g
   id="g58">
</g>
<g
   id="g60">
</g>
<g
   id="g62">
</g>
</g></svg>
