<?xml version="1.0" encoding="UTF-8" standalone="no"?>
<svg
   version="1.1"
   width="512"
   height="512"
   x="0"
   y="0"
   viewBox="0 0 512.875 512.875"
   style="enable-background:new 0 0 512 512"
   xml:space="preserve"
   class=""
   id="svg40"
   sodipodi:docname="car_dealership.svg"
   inkscape:version="1.1 (c68e22c387, 2021-05-23)"
   xmlns:inkscape="http://www.inkscape.org/namespaces/inkscape"
   xmlns:sodipodi="http://sodipodi.sourceforge.net/DTD/sodipodi-0.dtd"
   xmlns="http://www.w3.org/2000/svg"
   xmlns:svg="http://www.w3.org/2000/svg"><defs
     id="defs44" /><sodipodi:namedview
     id="namedview42"
     pagecolor="#ffffff"
     bordercolor="#666666"
     borderopacity="1.0"
     inkscape:pageshadow="2"
     inkscape:pageopacity="0.0"
     inkscape:pagecheckerboard="0"
     showgrid="false"
     inkscape:zoom="1.5859375"
     inkscape:cx="255.68473"
     inkscape:cy="256.31527"
     inkscape:window-width="1920"
     inkscape:window-height="1001"
     inkscape:window-x="-9"
     inkscape:window-y="-9"
     inkscape:window-maximized="1"
     inkscape:current-layer="Filled_14_" /><g
     id="g38"><linearGradient
       id="SVGID_1_"
       gradientUnits="userSpaceOnUse"
       x1="139.25"
       x2="139.25"
       y1="371.514"
       y2="462.7"><stop
         stop-opacity="1"
         stop-color="#a8abff"
         offset="3.6422e-7"
         id="stop2" /><stop
         stop-opacity="1"
         stop-color="#fac8ff"
         offset="1"
         id="stop4" /></linearGradient><linearGradient
       id="SVGID_2_"
       gradientUnits="userSpaceOnUse"
       x1="139.25"
       x2="139.25"
       y1="302.937"
       y2="371.514"><stop
         offset=".00000083866"
         stop-color="#96d1f3"
         id="stop7" /><stop
         offset="1"
         stop-color="#ccfff4"
         id="stop9" /></linearGradient><linearGradient
       id="SVGID_3_"
       gradientUnits="userSpaceOnUse"
       x1="256.438"
       x2="256.438"
       y1=".85"
       y2="512.025"><stop
         stop-opacity="1"
         stop-color="#016a5a"
         offset="1.1981e-7"
         id="stop12" /><stop
         stop-opacity="1"
         stop-color="#76ba3b"
         offset="0.806949806949807"
         id="stop14" /></linearGradient><g
       id="Filled_14_"><g
         fill="#fff"
         id="g27"><path
           d="m275.5 38.525-206.5 44.916v421.084h413v-421.084z"
           fill="#ffffff"
           data-original="#ffffff"
           style=""
           id="path17" /><path
           d="m49.948 504.525c-10.405 0-18.84-8.435-18.84-18.84v-22.985h37.68v22.985c0 10.405-8.435 18.84-18.84 18.84z"
           fill="#ffffff"
           data-original="#ffffff"
           style=""
           id="path19" /><path
           d="m53.5 404.092c-8.284 0-15 6.716-15 15 0 8.284 6.716 15 15 15h25.462v-4.538c0-14.062-11.4-25.462-25.462-25.462z"
           fill="#ffffff"
           data-original="#ffffff"
           style=""
           id="path21" /><path
           d="m199.538 430.554v3.538h26.462c8.284 0 15-6.716 15-15 0-8.284-6.716-15-15-15-14.614 0-26.462 11.847-26.462 26.462z"
           fill="#ffffff"
           data-original="#ffffff"
           style=""
           id="path23" /><path
           d="m127.997 343.514h-105.497c-7.732 0-14 6.268-14 14 0 7.732 6.268 14 14 14h105.497z"
           fill="#ffffff"
           data-original="#ffffff"
           style=""
           id="path25" /></g><path
         d="m250.455 380.643-13.236-9.128h-195.937l-13.236 9.128c-12.239 8.44-19.546 22.356-19.546 37.222v33.531c0 6.243 5.061 11.304 11.304 11.304h238.892c6.243 0 11.304-5.061 11.304-11.304v-33.531c0-14.866-7.307-28.782-19.545-37.222z"
         fill="url(#SVGID_1_)"
         data-original="url(#SVGID_1_)"
         style=""
         id="path29" /><path
         d="m214.61 302.937h-150.72l-22.608 68.577h195.936z"
         fill="url(#SVGID_2_)"
         data-original="url(#SVGID_2_)"
         style=""
         id="path31" /><path
         d="m505.375 88.525-229.875-50-229.875 50v-30l229.875-50 229.875 50z"
         fill="#ffffff"
         data-original="#ffffff"
         style=""
         id="path33" /><path
         d="m86.462 429.554c0-18.175-14.787-32.962-32.962-32.962-12.406 0-22.5 10.093-22.5 22.5s10.094 22.5 22.5 22.5h32.962zm-32.962-2.962c-9.926 0-9.916-15 0-15 8.896 0 16.301 6.5 17.718 15zm195-7.5c0-12.407-10.094-22.5-22.5-22.5-18.727 0-33.962 15.235-33.962 33.962v11.038h33.962c12.406 0 22.5-10.093 22.5-22.5zm-15 0c0 4.136-3.364 7.5-7.5 7.5h-18.546c3.498-16.389 26.046-19.92 26.046-7.5zm-54.75 22.5h-79v-15h79zm0-25.6h-15v-15h15zm-64 0h-15v-15h15zm32 0h-15v-15h15zm192.25-19.4c-18.727 0-33.962 15.235-33.962 33.962v11.038h33.962c12.406 0 22.5-10.093 22.5-22.5s-10.094-22.5-22.5-22.5zm0 30h-18.546c1.827-8.56 9.449-15 18.546-15 4.136 0 7.5 3.364 7.5 7.5s-3.364 7.5-7.5 7.5zm107-30c-18.727 0-33.962 15.235-33.962 33.962v11.038h33.962c12.406 0 22.5-10.093 22.5-22.5s-10.094-22.5-22.5-22.5zm0 30h-18.546c1.827-8.56 9.449-15 18.546-15 4.136 0 7.5 3.364 7.5 7.5s-3.364 7.5-7.5 7.5zm-334.628-72.288-8.998-12.002 30.106-22.571 8.998 12.002zm44.648 3.787-8.998-12.002 30.106-22.571 8.998 12.002zm356.855-260.259v-45.351l-237.375-51.631-237.375 51.631v45.351l23.375-5.084v202.689h-3.035l-13.378 40.578h-22.587c-25.934 0-29.521 37.809-3.981 42.615-25.191 22.594-15.268 50.834-17.519 72.766 0 10.369 8.436 18.804 18.804 18.804h3.805c.505 12.779-1.386 18.565 2.57 26.825h-26.179v15h512v-15h-39.678c3.956-8.259 2.065-14.035 2.57-26.825h3.805c10.368 0 18.804-8.436 18.804-18.804v-33.531c0-15.077-6.45-29.308-17.519-39.236 17.93-3.375 23.786-26.278 9.519-37.826v-248.055zm-459.75-33.263 222.375-48.369 222.375 48.369v14.649l-222.375-48.368-222.375 48.369zm16.189 245.868h137.576 2.296l17.663 53.578c-9.103 0-168.664 0-175.197 0zm6.974 159.763h125.924c.505 12.774-1.386 18.566 2.57 26.825h-131.064c3.957-8.26 2.065-14.036 2.57-26.825zm140.924 15.485v-15.485h22.68v15.485c0 15.009-22.68 14.991-22.68 0zm37.68-15.485h60.32c.505 12.774-1.386 18.566 2.57 26.825h-65.46c3.956-8.259 2.57-26.825 2.57-26.825zm75.32 15.485v-15.485h22.68v15.485c0 15.009-22.68 14.991-22.68 0zm37.68-15.485c3.393-.035 54.32 0 54.32 0 .505 12.774-1.386 18.566 2.57 26.825h-59.46c3.956-8.259 2.064-14.035 2.57-26.825zm3.804-15c-10.45 0-78.358 0-94.584 0 .254-1.229.388-2.501.388-3.804-2.225-22.074 7.589-49.749-17.112-72.382h87.495c4.54 4.348 27.617 12.92 27.617 38.851-1.273 27.854 2.951 37.335-3.804 37.335zm-115.696-91.186h-13.356l-4.286-13h17.642c3.584 0 6.5 2.916 6.5 6.5s-2.916 6.5-6.5 6.5zm113 0h-13.356l-4.286-13h17.642c3.584 0 6.5 2.916 6.5 6.5s-2.916 6.5-6.5 6.5zm0-28h-22.587l-8.432-25.578h91.205l17.663 53.578h-57.359c4.419-13.901-6.04-28-20.49-28zm-29.151 28h-63.359c4.419-13.901-6.04-28-20.49-28h-22.587l-8.432-25.578h97.205zm-317.349-13h17.642l-4.286 13h-13.356c-8.603 0-8.593-13 0-13zm-2.696 104.186c-6.71 0-2.516-9.163-3.804-37.335 0-25.892 23.189-34.611 27.617-38.851h191.266c4.54 4.348 27.617 12.92 27.617 38.851-1.273 27.853 2.951 37.335-3.804 37.335zm18.804 30.485v-15.485h22.68v15.485c0 6.253-5.087 11.34-11.34 11.34s-11.34-5.087-11.34-11.34zm421.284 0c0 15.009-22.68 14.99-22.68 0v-15.485h22.68zm22.608-67.82s2.951 37.335-3.804 37.335c0 0-75.55 0-88.584 0 .68-3.294.258-2.52.388-37.335 0-14.887-6.298-28.942-17.112-38.851h81.495c4.54 4.348 27.617 12.921 27.617 38.851zm-6.5-53.851h-13.356l-4.286-13h17.642c8.603 0 8.593 13 0 13zm-1.5-28h-21.087l-13.377-40.578c-39.084 0-318.688 0-363.535 0v-205.951l199-43.284 199 43.284v246.529zm-372.696-65.489h347.393v-144h-347.393zm125.798-15v-114h95.797v114zm206.594 0h-95.798v-114h95.798zm-317.392-114h95.798v114h-95.798z"
         fill="url(#SVGID_3_)"
         data-original="url(#SVGID_3_)"
         style="fill:#755a4a;fill-opacity:1"
         id="path35" /></g></g></svg>
