<?xml version="1.0" encoding="UTF-8" standalone="no"?>
<svg
   version="1.1"
   width="512"
   height="512"
   x="0"
   y="0"
   viewBox="0 0 256 256"
   style="enable-background:new 0 0 512 512"
   xml:space="preserve"
   class=""
   id="svg154"
   sodipodi:docname="independent_car_seller.svg"
   inkscape:version="1.1 (c68e22c387, 2021-05-23)"
   xmlns:inkscape="http://www.inkscape.org/namespaces/inkscape"
   xmlns:sodipodi="http://sodipodi.sourceforge.net/DTD/sodipodi-0.dtd"
   xmlns="http://www.w3.org/2000/svg"
   xmlns:svg="http://www.w3.org/2000/svg"><defs
     id="defs158" /><sodipodi:namedview
     id="namedview156"
     pagecolor="#ffffff"
     bordercolor="#666666"
     borderopacity="1.0"
     inkscape:pageshadow="2"
     inkscape:pageopacity="0.0"
     inkscape:pagecheckerboard="0"
     showgrid="false"
     inkscape:zoom="1.5859375"
     inkscape:cx="255.68473"
     inkscape:cy="250.00985"
     inkscape:window-width="1920"
     inkscape:window-height="1001"
     inkscape:window-x="-9"
     inkscape:window-y="-9"
     inkscape:window-maximized="1"
     inkscape:current-layer="g88" /><g
     id="g152"><g
       id="g150"><g
         id="g16"><g
           id="g4"><circle
             cx="163.761"
             cy="50.356"
             fill="#ef7816"
             r="37.5"
             data-original="#ef7816"
             style=""
             id="circle2" /></g><g
           id="g8"><circle
             cx="163.761"
             cy="50.356"
             fill="#ffc91d"
             r="29.762"
             data-original="#ffc91d"
             style=""
             id="circle6" /></g><g
           id="g12"><path
             d="m182.152 26.965c3.986 5.063 6.371 11.446 6.371 18.391 0 16.437-13.325 29.762-29.762 29.762-6.944 0-13.328-2.385-18.391-6.371 5.45 6.922 13.898 11.371 23.391 11.371 16.437 0 29.762-13.325 29.762-29.762 0-9.493-4.449-17.941-11.371-23.391z"
             fill="#ffa91a"
             data-original="#ffa91a"
             style=""
             id="path10" /></g><path
           d="m166.766 46.854h-1.004v-11.023h1.004c3.039 0 5.512 2.472 5.512 5.511 0 1.104.896 2 2 2s2-.896 2-2c0-5.245-4.267-9.511-9.512-9.511h-1.004v-1.004c0-1.104-.896-2-2-2s-2 .896-2 2v1.004h-1.005c-5.245 0-9.512 4.267-9.512 9.511s4.267 9.512 9.512 9.512h1.005v14.027h-1.005c-3.039 0-5.512-2.472-5.512-5.511 0-1.104-.896-2-2-2s-2 .896-2 2c0 5.245 4.267 9.511 9.512 9.511h1.005v1.005c0 1.104.896 2 2 2s2-.896 2-2v-1.005h1.004c5.245 0 9.512-4.267 9.512-9.511v-3.004c-.001-5.245-4.267-9.512-9.512-9.512zm-6.009 0c-3.039 0-5.512-2.473-5.512-5.512s2.473-5.511 5.512-5.511h1.005v11.023zm11.52 12.516c0 3.039-2.473 5.511-5.512 5.511h-1.004v-14.027h1.004c3.039 0 5.512 2.472 5.512 5.511z"
           fill="#995222"
           data-original="#995222"
           style=""
           id="path14" /></g><g
         id="g106"><g
           id="g88"><g
             id="g26"
             style="fill:#5b4f45;fill-opacity:1"><g
               id="g24"
               style="fill:#5b4f45;fill-opacity:1"><path
                 d="m230.811 141.541 2.72-1.747c-1.062-.693-1.921-1.716-2.393-2.997l-.258-.702c-.06-.163-.103-.326-.148-.49l-1.7 1.092z"
                 fill="#016a5a"
                 data-original="#2266d3"
                 class=""
                 id="path18"
                 style="fill:#5b4f45;fill-opacity:1" /><g
                 id="g22"
                 style="fill:#5b4f45;fill-opacity:1"><path
                   d="m238.985 140.421 6.037-2.223c2.632-.969 4.266-3.605 3.965-6.393l-.176-1.622c-.218-2.017-2.033-3.473-4.049-3.25l-8.819.976c-3.946.437-6.435 4.461-5.063 8.186l.258.702c1.166 3.167 4.68 4.79 7.847 3.624z"
                   fill="#76ba3b"
                   data-original="#377de2"
                   class=""
                   id="path20"
                   style="fill:#5b4f45;fill-opacity:1" /></g></g></g><g
             fill="#414042"
             id="g32"><path
               d="m99.762 208.868c-4.349 0-8.254-1.862-10.994-4.819v13.157c0 3.047 2.47 5.516 5.516 5.516h16.549c3.047 0 5.516-2.47 5.516-5.516v-8.338z"
               fill="#414042"
               data-original="#414042"
               id="path28"
               style="" /><path
               d="m227.762 208.866h-16.588v8.339c0 3.047 2.47 5.516 5.516 5.516h16.549c3.047 0 5.516-2.47 5.516-5.516v-13.159c-2.739 2.958-6.644 4.82-10.993 4.82z"
               fill="#414042"
               data-original="#414042"
               id="path30"
               style="" /></g><g
             id="g36"
             style="fill:#5b4f45;fill-opacity:1"><path
               d="m99.762 208.868 128-.002c8.284 0 15-6.716 15-15v-27.252c0-3.903-1.142-7.721-3.286-10.983l-7.911-12.039h-135.606l-7.911 12.039c-2.144 3.262-3.286 7.08-3.286 10.983v27.253c-.001 8.285 6.715 15.001 15 15.001z"
               fill="#76ba3b"
               data-original="#377de2"
               class=""
               id="path34"
               style="fill:#5b4f45;fill-opacity:1" /></g><g
             id="g40"><path
               d="m242.761 166.615c0-3.903-1.142-7.721-3.286-10.983l-7.911-12.039h-1.714l4.626 7.039c2.144 3.262 3.286 7.08 3.286 10.983v27.252c0 8.284-6.716 15-15 15l-128 .002c-2.86 0-5.523-.815-7.797-2.203 2.634 4.314 7.372 7.203 12.797 7.203l128-.002c8.284 0 15-6.716 15-15z"
               fill="#016a5a"
               data-original="#2266d3"
               style="fill:#4e3f37;fill-opacity:1"
               class=""
               id="path38" /></g><g
             id="g44"><path
               d="m185.742 186.944h-43.962c-2.27 0-4.256-1.53-4.835-3.725l-2.363-8.962c-.836-3.171 1.555-6.275 4.835-6.275h48.688c3.279 0 5.671 3.104 4.835 6.275l-2.363 8.962c-.579 2.195-2.564 3.725-4.835 3.725z"
               fill="#414042"
               data-original="#414042"
               id="path42"
               style="" /></g><g
             id="g48"
             style="fill:#755a42;fill-opacity:1"><path
               d="m229.862 149.467-2.725-4.854c-.354-.631-1.021-1.021-1.744-1.021h-123.264c-.723 0-1.39.39-1.744 1.021l-2.725 4.854c-1.516 2.7-.238 6.115 2.678 7.156l20.791 7.426c1.079.386 2.217.583 3.363.583h78.536c1.146 0 2.284-.197 3.363-.583l20.791-7.426c2.918-1.041 4.196-4.456 2.68-7.156z"
               fill="#016a5a"
               data-original="#2266d3"
               class=""
               id="path46"
               style="fill:#755a42;fill-opacity:1" /></g><g
             id="g66"><g
               id="g52"><path
                 d="m204.447 172.163c3.941-3.892 12.938-10.107 30.372-10.414.843-.015 1.608.514 1.904 1.304 1.093 2.92 2.864 9.832-3.935 11.721-6.444 1.79-20.322 1.191-27.065.762-1.703-.109-2.49-2.175-1.276-3.373z"
                 fill="#ffffff"
                 data-original="#ffffff"
                 id="path50"
                 style="" /></g><g
               id="g56"><path
                 d="m236.723 163.053c-.296-.789-1.061-1.319-1.904-1.304-.578.01-1.123.043-1.683.066.532 3.199.075 7.142-4.808 8.499-5.321 1.478-15.702 1.327-22.959.988-.331.296-.643.586-.923.862-1.214 1.198-.426 3.264 1.276 3.372 6.744.429 20.621 1.029 27.065-.762 6.8-1.889 5.029-8.801 3.936-11.721z"
                 fill="#f1f2f2"
                 data-original="#f1f2f2"
                 id="path54"
                 style="" /></g><g
               id="g60"><path
                 d="m123.076 172.163c-3.941-3.892-12.938-10.107-30.372-10.414-.843-.015-1.608.514-1.904 1.304-1.093 2.92-2.864 9.832 3.935 11.721 6.444 1.79 20.322 1.191 27.065.762 1.703-.109 2.49-2.175 1.276-3.373z"
                 fill="#ffffff"
                 data-original="#ffffff"
                 id="path58"
                 style="" /></g><g
               id="g64"><path
                 d="m123.076 172.163c-.972-.96-2.256-2.062-3.895-3.182.055 1.011-.665 2.019-1.84 2.094-6.744.429-20.621 1.029-27.065-.762-.11-.03-.199-.073-.305-.106.477 1.977 1.811 3.746 4.764 4.566 6.444 1.79 20.322 1.191 27.065.762 1.703-.108 2.49-2.174 1.276-3.372z"
                 fill="#f1f2f2"
                 data-original="#f1f2f2"
                 id="path62"
                 style="" /></g></g><g
             id="g70"
             style="fill:#5b4f45;fill-opacity:1"><path
               d="m200.821 97.909h-74.119c-8.386 0-15.881 5.231-18.773 13.103l-11.97 32.58h135.606l-11.97-32.58c-2.893-7.871-10.388-13.103-18.774-13.103z"
               fill="#76ba3b"
               data-original="#377de2"
               class=""
               id="path68"
               style="fill:#5b4f45;fill-opacity:1" /></g><g
             id="g74"><path
               d="m103.644 134.978 8.468-22.656c1.461-3.908 5.195-6.499 9.367-6.499h84.565c4.172 0 7.906 2.591 9.367 6.499l8.468 22.656c.489 1.307-.478 2.7-1.873 2.7h-116.489c-1.395 0-2.362-1.393-1.873-2.7z"
               fill="#f1f2f2"
               data-original="#f1f2f2"
               id="path72"
               style="" /></g><g
             id="g78"><path
               d="m171.608 113.823c-1.104 0-2.033-.896-2.033-2s.862-2 1.967-2h.066c1.104 0 2 .896 2 2s-.895 2-2 2zm-8.066 0h-42c-1.104 0-2-.896-2-2s.896-2 2-2h42c1.104 0 2 .896 2 2s-.896 2-2 2z"
               fill="#ffffff"
               data-original="#ffffff"
               id="path76"
               style="" /></g><g
             id="g82"><path
               d="m223.879 134.978-8.468-22.656c-1.38-3.693-4.79-6.206-8.682-6.473l7.149 19.129c.489 1.307-.478 2.7-1.873 2.7h-105.633l-2.728 7.3c-.489 1.307.478 2.7 1.873 2.7h116.488c1.396 0 2.362-1.393 1.874-2.7z"
               fill="#e6e7e8"
               data-original="#e6e7e8"
               id="path80"
               style="" /></g><g
             id="g86"><path
               d="m223.879 134.978-8.468-22.656c-.953-2.549-2.876-4.532-5.254-5.607.09.199.177.4.254.607l8.468 22.656c.489 1.307-.478 2.7-1.873 2.7h-112.502l-.86 2.3c-.489 1.307.478 2.7 1.873 2.7h116.488c1.396 0 2.362-1.393 1.874-2.7z"
               fill="#d1d3d4"
               data-original="#d1d3d4"
               class=""
               id="path84"
               style="" /></g></g><g
           id="g92"><path
             d="m212.413 200.861h-97.303c-1.692 0-2.619-1.97-1.542-3.274l2.796-3.384c.95-1.15 2.363-1.815 3.855-1.815h87.086c1.491 0 2.905.666 3.855 1.815l2.796 3.384c1.076 1.305.148 3.274-1.543 3.274z"
             fill="#414042"
             data-original="#414042"
             id="path90"
             style="" /></g><g
           id="g104"><g
             id="g102"><g
               id="g96"><circle
                 cx="225.167"
                 cy="196.625"
                 fill="#d1d3d4"
                 r="5.797"
                 data-original="#d1d3d4"
                 class=""
                 id="circle94"
                 style="" /></g><g
               id="g100"><circle
                 cx="225.167"
                 cy="196.625"
                 fill="#ffffff"
                 r="3.529"
                 data-original="#ffffff"
                 id="circle98"
                 style="" /></g></g></g></g><g
         id="g148"><g
           id="g120"><g
             id="g110"><path
               d="m65.936 103.352c-1.104 0-2-.896-2-2v-31.623c0-1.104.896-2 2-2s2 .896 2 2v31.623c0 1.105-.896 2-2 2z"
               fill="#58595b"
               data-original="#58595b"
               style=""
               id="path108" /></g><g
             id="g114"><path
               d="m45.937 103.353c-.755 0-1.479-.43-1.816-1.161l-10-21.623c-.464-1.002-.026-2.191.976-2.655 1.005-.461 2.192-.027 2.655.976l10 21.623c.464 1.002.026 2.191-.976 2.655-.273.125-.558.185-.839.185z"
               fill="#58595b"
               data-original="#58595b"
               style=""
               id="path112" /></g><g
             id="g118"><path
               d="m85.935 103.353c-.281 0-.566-.06-.839-.185-1.002-.464-1.439-1.652-.976-2.655l10-21.623c.464-1.003 1.653-1.437 2.655-.976 1.002.464 1.439 1.652.976 2.655l-10 21.623c-.338.73-1.062 1.161-1.816 1.161z"
               fill="#58595b"
               data-original="#58595b"
               style=""
               id="path116" /></g></g><g
           id="g124"><path
             d="m21.863 53.51.811 3.778c.852 3.969 3.953 7.069 7.922 7.922l3.778.811c.911.196.911 1.495 0 1.691l-3.778.811c-3.969.852-7.069 3.953-7.922 7.922l-.811 3.778c-.196.911-1.495.911-1.691 0l-.811-3.778c-.852-3.969-3.953-7.069-7.922-7.922l-3.778-.811c-.911-.196-.911-1.495 0-1.691l3.778-.811c3.969-.852 7.069-3.953 7.922-7.922l.811-3.778c.195-.911 1.495-.911 1.691 0z"
             fill="#ffc91d"
             data-original="#ffc91d"
             style=""
             id="path122" /></g><g
           id="g128"><path
             d="m114.125 63.795.58 2.701c.609 2.838 2.827 5.055 5.665 5.665l2.701.58c.651.14.651 1.069 0 1.209l-2.701.58c-2.838.609-5.055 2.827-5.665 5.665l-.58 2.701c-.14.651-1.069.651-1.209 0l-.58-2.701c-.609-2.838-2.827-5.055-5.665-5.665l-2.701-.58c-.651-.14-.651-1.069 0-1.209l2.701-.58c2.838-.609 5.055-2.827 5.665-5.665l.58-2.701c.139-.651 1.069-.651 1.209 0z"
             fill="#ffc91d"
             data-original="#ffc91d"
             style=""
             id="path126" /></g><g
           id="g146"><path
             d="m136.838 175.39c-3.989-3.989-10.457-3.99-14.447-.001l7.691-7.691c3.99-3.99 3.99-10.458 0-14.447-3.99-3.99-10.458-3.99-14.447 0l-9.188 9.187 16.411-16.411c3.99-3.99 3.99-10.458 0-14.447-3.99-3.99-10.458-3.99-14.447 0l-16.411 16.411 39.711-39.711c3.99-3.99 3.99-10.458 0-14.447s-10.458-3.99-14.447 0l-52.584 52.584 9.883-23.339c2.3-5.431-.305-11.692-5.778-13.89-5.217-2.095-11.161.273-13.506 5.383l-13.302 28.969c-4.307 9.38-6.981 19.425-7.909 29.705l-1.708 18.918-9.499 9.499c-1.953 1.953-1.953 5.118 0 7.071l32.476 32.477c1.953 1.953 5.119 1.953 7.071 0l11.742-11.742c18.27-3.26 32.37-9.312 45.493-22.435l2.821-2.821s0 0 .001-.001l14.374-14.374c3.989-3.989 3.989-10.458-.001-14.447z"
             fill="#fcc4ae"
             data-original="#fcc4ae"
             style=""
             id="path130" /><g
             id="g134"><path
               d="m129.17 106.208-3.162 3.162c-.781.781-2.047.781-2.828 0l-7.007-7.008c-.781-.781-.781-2.047 0-2.828l3.162-3.162c1.953-1.953 5.118-1.953 7.071 0l2.765 2.765c1.951 1.952 1.951 5.118-.001 7.071z"
               fill="#ffd2c0"
               data-original="#ffd2c0"
               style=""
               id="path132" /></g><g
             id="g138"><path
               d="m71.324 121.729-1.788 4.099c-.442 1.012-1.62 1.475-2.633 1.034l-9.084-3.961c-1.012-.442-1.475-1.62-1.034-2.633l1.788-4.099c1.104-2.531 4.051-3.688 6.582-2.585l3.584 1.563c2.532 1.104 3.689 4.051 2.585 6.582z"
               fill="#ffd2c0"
               data-original="#ffd2c0"
               style=""
               id="path136" /></g><g
             id="g144"><g
               id="g142"><path
                 d="m139.453 179.881c-.455 1.645-1.322 3.199-2.615 4.492l-14.374 14.374-2.821 2.821c-13.123 13.123-27.222 19.175-45.493 22.435l-12.545 12.545c-1.509 1.509-3.956 1.509-5.464 0l-34.083-34.083c-1.509 1.509-1.509 3.955 0 5.464l34.083 34.083c1.509 1.509 3.955 1.509 5.464 0l12.545-12.545c18.27-3.26 32.369-9.312 45.493-22.435l2.821-2.821 14.374-14.374c2.697-2.697 3.564-6.525 2.615-9.956z"
                 fill="#f2ad97"
                 data-original="#f2ad97"
                 style=""
                 id="path140" /></g></g></g></g></g></g></svg>
